<svg id="Ebene_1" data-name="Ebene 1" xmlns="http://www.w3.org/2000/svg" viewBox="0 0 100 100"><defs><style>.cls-1{fill:#a6a99c;}.cls-2{fill:#7b7c75;}.cls-3{fill:#fff;}.cls-4{fill:#181716;}</style></defs><rect class="cls-1" x="14" y="21.4" width="72" height="53.2"/><rect class="cls-2" x="14" y="21.4" width="72" height="12"/><rect class="cls-3" x="14" y="33.4" width="72" height="4"/><rect class="cls-3" x="18" y="25.4" width="4" height="4"/><rect class="cls-3" x="26" y="25.4" width="4" height="4"/><rect class="cls-3" x="34" y="25.4" width="4" height="4"/><rect class="cls-4" x="14" y="74.6" width="72" height="4"/><path class="cls-3" d="M18.01874,52.17364c-.3385,2.22568,3.93915,10.26209,10.30616,14.23595,6.02157,3.26532,5.86848-1.17378,6.12361-2.5004.62711-9.131,2.64075-14.20744,9.44037-20.57045.12508-2.603-6.34121.04735-9.1211,4.66523A71.5349,71.5349,0,0,0,29.5502,59.368c-.51023,1.32663-.51023,2.29609-2.092.56127C25.34834,58.25052,20.50579,50.30413,18.01874,52.17364Z"/><path class="cls-3" d="M39.24477,60.1334s-.71434,5.7147,1.12255,6.73519,3.67532,1.02048,3.649-5.10241.27986-8.311-.28142-9.81916c-1.16232-3.038-3.70251,2.04942-3.74952,2.96506a39.26924,39.26924,0,0,0-.87547,7.87107C39.11427,62.7833,39.18361,61.38378,39.24477,60.1334Z"/><path class="cls-3" d="M49.85986,51.09941c1.41989.0101,1.56552.35252,2.39606,1.38038,1.02047,1.12253,4.235,5.81675,4.54113,6.07187s.76537.66331,1.17357,0,3.77579-6.276,4.54116-6.93928.76534-.652,1.32662-.63215,1.12252.5301,1.63275,2.16287.86741,7.95976.81639,9.59253.28933,4.36818-.61228,4.5553-2.65325.80224-2.90838-1.95307.20411-5.7147-.20408-6.378-.30616-.6875-1.12254.21751-2.37163,2.895-3.0737,3.45623-1.26335.86741-2.13076.102-3.11247-3.57168-3.57168-4.133-.96946-1.02048-1.17357-.51024.051,5.40856-.15306,6.9903-.35717,2.13435-.96945,2.29176a1.93057,1.93057,0,0,1-2.24508-.659c-.56126-.91843-.86741-6.12289-.56126-9.13331C48.05109,53.642,48.44,51.08931,49.85986,51.09941Z"/><path class="cls-3" d="M80.37021,53.09207a21.29707,21.29707,0,0,0-7.60261-2.118c-2.39811-.17908-3.6227,0-3.92885,1.65877s-.051,2.60223,0,7.80669.66333,6.7862,1.2756,6.93494a2.33119,2.33119,0,0,0,2.143-.25078c.6123-.56127.2551-1.27561.30615-2.34711a3.61407,3.61407,0,0,1,.76534-2.60223c.61231-.51025,3.77579-.4082,6.7352-1.17356s3.06144-2.39813,3.06144-4.0309S81.95194,54.06153,80.37021,53.09207ZM74.358,59.7764c-2.29888.20292-1.94983-3.61135-1.59036-5.40872.25514-1.27561,6.83025,1.04132,7.04152,3.16363C79.52151,59.64622,76.65684,59.57347,74.358,59.7764Z"/></svg>