<svg id="Ebene_1" data-name="Ebene 1" xmlns="http://www.w3.org/2000/svg" viewBox="0 0 100 100"><defs><style>.cls-1{fill:#181716;}.cls-2{fill:#b9b9b0;}.cls-3{fill:#7b7c75;}</style></defs><polygon class="cls-1" points="49 64.25 49 60.35 51 60.35 51 64.25 49 64.25"/><rect class="cls-2" x="22.4" y="31.75" width="15.7" height="12.3"/><rect class="cls-2" x="61.9" y="31.75" width="15.7" height="12.3"/><rect class="cls-2" x="61.9" y="48.05" width="15.7" height="12.3"/><rect class="cls-2" x="42.1" y="48.05" width="15.7" height="12.3"/><rect class="cls-2" x="22.4" y="48.05" width="15.7" height="12.3"/><rect class="cls-2" x="22.4" y="64.25" width="15.7" height="12.3"/><rect class="cls-2" x="42.1" y="64.25" width="15.7" height="12.3"/><rect class="cls-2" x="61.9" y="64.25" width="15.7" height="12.3"/><rect class="cls-3" x="42.1" y="15.45" width="15.7" height="12.3"/><polygon class="cls-1" points="61.9 36.85 51 36.85 51 27.75 49 27.75 49 36.85 38.1 36.85 38.1 38.85 49 38.85 49 48.05 51 48.05 51 38.85 61.9 38.85 61.9 36.85"/><polygon class="cls-1" points="42.1 55.15 38.1 55.15 38.1 53.15 42.1 53.15 42.1 55.15"/><polygon class="cls-1" points="61.9 55.15 57.8 55.15 57.8 53.15 61.9 53.15 61.9 55.15"/><polygon class="cls-1" points="42.1 71.45 38.1 71.45 38.1 69.45 42.1 69.45 42.1 71.45"/><polygon class="cls-1" points="61.9 71.45 57.8 71.45 57.8 69.45 61.9 69.45 61.9 71.45"/><rect class="cls-1" x="22.4" y="80.55" width="55.1" height="4"/></svg>