<?xml version="1.0" encoding="UTF-8" standalone="no"?>
<svg
   id="Ebene_1"
   data-name="Ebene 1"
   viewBox="0 0 199.99999 199.99999"
   width="60"
   height="60"
   version="1.1"
   sodipodi:docname="HeaderIcon.svg"
   inkscape:version="1.1.2 (0a00cf5339, 2022-02-04)"
   xmlns:inkscape="http://www.inkscape.org/namespaces/inkscape"
   xmlns:sodipodi="http://sodipodi.sourceforge.net/DTD/sodipodi-0.dtd"
   xmlns="http://www.w3.org/2000/svg"
   xmlns:svg="http://www.w3.org/2000/svg">
  <sodipodi:namedview
     id="namedview23"
     pagecolor="#ffffff"
     bordercolor="#666666"
     borderopacity="1.0"
     inkscape:pageshadow="2"
     inkscape:pageopacity="0.0"
     inkscape:pagecheckerboard="0"
     showgrid="false"
     inkscape:zoom="0.9983453"
     inkscape:cx="6.5107734"
     inkscape:cy="15.024862"
     inkscape:window-width="1920"
     inkscape:window-height="1012"
     inkscape:window-x="1920"
     inkscape:window-y="0"
     inkscape:window-maximized="1"
     inkscape:current-layer="Ebene_1" />
  <defs
     id="defs4">
    <style
       id="style2">.cls-1{fill:#008ad1;}.cls-2{fill:#fff;}</style>
  </defs>
  <polygon
     class="cls-1"
     points="100,100 100,0 58.712,0 50.801,7.911 42.89,0 0,0 0,100 "
     id="polygon6"
     transform="scale(1.9999999)" />
  <polygon
     class="cls-2"
     points="88.965,61.829 83.407,61.829 82.427,67.387 87.985,67.387 "
     id="polygon8"
     transform="scale(1.9999999)" />
  <polygon
     class="cls-2"
     points="82.059,69.471 79.119,86.145 84.677,86.145 87.617,69.471 "
     id="polygon10"
     transform="scale(1.9999999)" />
  <path
     class="cls-2"
     d="m 150.14046,123.65813 -2.69501,15.284 h -8.33917 a 10.41134,10.41134 0 0 0 -9.80442,8.33671 v 0 l -1.44508,8.19551 -1.4949,8.478 v 0 a 6.8204198,6.8204198 0 0 0 6.86678,8.33676 v 0 h 19.45245 l 8.57488,-48.63098 z m -7.84001,44.46272 a 1.72618,1.72618 0 0 1 -1.60098,1.38946 h -2.84599 a 1.1293999,1.1293999 0 0 1 -1.11099,-1.38946 l 4.41,-25.01028 a 1.7261599,1.7261599 0 0 1 1.60066,-1.38943 h 2.84652 a 1.12938,1.12938 0 0 1 1.11069,1.38943 z"
     id="path12"
     style="stroke-width:2" />
  <path
     class="cls-2"
     d="M 83.532435,138.94222 H 47.403999 l -5.880001,33.34701 h 11.11574 l 5.145,-29.17861 a 1.7262199,1.7262199 0 0 1 1.60068,-1.38947 h 2.846581 a 1.1275399,1.1275399 0 0 1 1.11114,1.38678 l -5.14548,29.1813 h 11.115618 l 5.145061,-29.17861 A 1.7261999,1.7261999 0 0 1 76.059,141.72115 h 2.84652 a 1.1293999,1.1293999 0 0 1 1.11066,1.38947 l -0.636945,3.6126 -1.236698,7.01374 -0.38028,2.15663 -2.89098,16.39564 H 85.9869 l 4.41,-25.01026 v 0 0 a 6.8203198,6.8203198 0 0 0 -6.864465,-8.33675 z"
     id="path14"
     style="stroke-width:2" />
  <path
     class="cls-2"
     d="m 116.87956,138.94219 h -11.12038 a 10.41132,10.41132 0 0 0 -9.80442,8.3367 v 0 l -2.94,16.67353 v 0 a 6.8204198,6.8204198 0 0 0 6.866775,8.33675 v 0 h 11.117995 a 10.4118,10.4118 0 0 0 9.80159,-8.32264 v 0 l 1e-4,-5.8e-4 0.49278,-2.79236 h -11.11564 l -1.22504,6.94726 a 1.7261999,1.7261999 0 0 1 -1.60098,1.38946 h -2.846 a 1.1293999,1.1293999 0 0 1 -1.11098,-1.38946 l 1.7211,-9.76062 a 1.688,1.688 0 0 1 1.59458,-1.35507 h 15.31795 l 1.715,-9.72622 v 0 a 6.8202998,6.8202998 0 0 0 -6.86443,-8.33675 z m -5.23743,13.92925 a 1.688,1.688 0 0 1 -1.59479,1.35479 h -2.846 a 1.10646,1.10646 0 0 1 -1.117,-1.35509 l 1.72102,-9.76063 a 1.7261599,1.7261599 0 0 1 1.60066,-1.38944 h 2.84652 a 1.1293999,1.1293999 0 0 1 1.11068,1.38944 z"
     id="path16"
     style="stroke-width:2" />
  <polygon
     class="cls-2"
     points="18.555,75.03 19.536,69.471 13.976,69.471 12.996,75.03 "
     id="polygon18"
     transform="scale(1.9999999)" />
  <path
     class="cls-2"
     d="M 24.030879,161.176 22.0703,172.29283 h 4.169699 l -0.294,1.66749 -0.098,0.55582 v 0 a 13.6163,13.6163 0 0 1 -2.727,6.10557 c 0.08638,0.002 0.17132,0.009 0.258821,0.009 a 10.43386,10.43386 0 0 0 9.723299,-7.90978 c 0.03036,-0.14183 0.06082,-0.28363 0.086,-0.42677 l 2e-4,-0.001 1.960679,-11.11677 z"
     id="path20"
     style="stroke-width:2" />
</svg>
