<?xml version="1.0" encoding="UTF-8" standalone="no"?>
<!-- Created with Inkscape (http://www.inkscape.org/) -->

<svg
   xmlns:dc="http://purl.org/dc/elements/1.1/"
   xmlns:cc="http://creativecommons.org/ns#"
   xmlns:rdf="http://www.w3.org/1999/02/22-rdf-syntax-ns#"
   xmlns:svg="http://www.w3.org/2000/svg"
   xmlns="http://www.w3.org/2000/svg"
   xmlns:sodipodi="http://sodipodi.sourceforge.net/DTD/sodipodi-0.dtd"
   xmlns:inkscape="http://www.inkscape.org/namespaces/inkscape"
   version="1.1"
   id="svg2"
   xml:space="preserve"
   width="201.78667"
   height="201.78667"
   viewBox="0 0 201.78667 201.78667"
   sodipodi:docname="HeaderIcon.svg"
   inkscape:version="0.92.3 (2405546, 2018-03-11)"><metadata
     id="metadata8"><rdf:RDF><cc:Work
         rdf:about=""><dc:format>image/svg+xml</dc:format><dc:type
           rdf:resource="http://purl.org/dc/dcmitype/StillImage" /><dc:title></dc:title></cc:Work></rdf:RDF></metadata><defs
     id="defs6" /><sodipodi:namedview
     pagecolor="#ffffff"
     bordercolor="#666666"
     borderopacity="1"
     objecttolerance="10"
     gridtolerance="10"
     guidetolerance="10"
     inkscape:pageopacity="0"
     inkscape:pageshadow="2"
     inkscape:window-width="1035"
     inkscape:window-height="480"
     id="namedview4"
     showgrid="false"
     inkscape:zoom="1.2929032"
     inkscape:cx="24.321475"
     inkscape:cy="100.89333"
     inkscape:window-x="0"
     inkscape:window-y="27"
     inkscape:window-maximized="0"
     inkscape:current-layer="g10" /><g
     id="g10"
     inkscape:groupmode="layer"
     inkscape:label="ink_ext_XXXXXX"
     transform="matrix(1.3333333,0,0,-1.3333333,0,201.78667)"><g
       id="g12"
       transform="scale(0.1)"><path
         d="M 756.504,978.633 H 645.172 c -60.895,0 -110.442,-49.539 -110.442,-110.434 V 645.176 c 0,-60.895 49.547,-110.43 110.442,-110.43 h 223.027 c 60.895,0 110.438,49.535 110.438,110.43 v 223.023 c 0,60.895 -49.543,110.434 -110.438,110.434 z M 626.137,645.176 v 223.023 c 0,10.496 8.535,19.035 19.035,19.035 h 223.027 c 10.496,0 19.031,-8.539 19.031,-19.035 V 645.176 c 0,-10.492 -8.535,-19.031 -19.031,-19.031 H 645.172 c -10.5,0 -19.035,8.539 -19.035,19.031"
         style="fill:#231f20;fill-opacity:1;fill-rule:nonzero;stroke:none"
         id="path14"
         inkscape:connector-curvature="0" /><path
         d="M 755.973,1513.38 C 613.676,1513.37 474.527,1473.11 353.559,1396.95 256.352,1335.74 176.344,1255.7 115.758,1159.05 40.2969,1038.69 0.269531,899.824 0,757.477 -0.277344,614.648 39.9766,474.98 116.422,353.57 177.621,256.355 257.66,176.344 354.313,115.762 475.137,40.0195 614.523,-0.0117188 757.398,0 c 142.29,0.00390625 281.442,40.2656 402.402,116.426 97.21,61.203 177.21,141.242 237.8,237.89 75.74,120.829 115.78,260.215 115.78,403.079 -0.02,142.293 -40.27,281.445 -116.43,402.405 -61.22,97.22 -141.25,177.23 -237.9,237.82 -120.82,75.74 -260.206,115.77 -403.077,115.76 z M 402.855,193.203 C 317.945,246.43 247.594,316.77 193.766,402.266 126.547,509.023 91.1523,631.793 91.4023,757.301 91.6367,882.52 126.84,1004.65 193.199,1110.51 c 53.231,84.92 123.571,155.26 209.063,209.1 106.363,66.96 228.676,102.36 353.711,102.37 125.683,0 248.277,-35.2 354.527,-101.8 84.91,-53.24 155.27,-123.58 209.1,-209.08 66.97,-106.36 102.37,-228.674 102.37,-353.705 0.01,-125.676 -35.2,-248.27 -101.81,-354.536 C 1266.93,317.949 1196.59,247.598 1111.1,193.773 1004.74,126.809 882.426,91.4063 757.387,91.3945 631.711,91.3867 509.117,126.594 402.855,193.203"
         style="fill:#231f20;fill-opacity:1;fill-rule:nonzero;stroke:none"
         id="path16"
         inkscape:connector-curvature="0" /><path
         d="m 756.148,1332.89 v 0 c -99.218,-0.01 -214.406,-8.67 -316.367,-72.87 -76.426,-48.12 -139.32,-111.04 -186.953,-187.03 -63.773,-101.736 -72.16,-222.15 -72.336,-315.693 -0.195,-99.477 8.309,-214.992 72.86,-317.516 48.097,-76.402 111.023,-139.304 187.023,-186.949 102.301,-64.129 223.063,-72.348 316.844,-72.344 99.222,0.012 214.406,8.672 316.371,72.871 76.41,48.11 139.32,111.036 186.94,187.024 64.13,102.305 72.36,223.058 72.35,316.836 0,99.226 -8.67,214.414 -72.86,316.371 -48.12,76.43 -111.05,139.32 -187.03,186.96 -102.302,64.12 -223.064,72.34 -316.842,72.34 z m 268.302,-149.78 c 64.25,-40.28 117.48,-93.52 158.22,-158.22 51.81,-82.292 58.81,-181.492 58.81,-267.679 0,-81.535 -6.63,-185.715 -58.39,-268.285 -40.27,-64.254 -93.5,-117.485 -158.2,-158.223 -82.296,-51.816 -181.495,-58.808 -267.679,-58.812 -81.543,-0.004 -185.731,6.625 -268.289,58.382 -64.262,40.29 -117.5,93.516 -158.223,158.204 -52.125,82.785 -58.976,182.253 -58.808,268.644 0.156,81.352 6.933,185.254 58.379,267.329 40.277,64.25 93.503,117.48 158.207,158.23 82.3,51.81 181.5,58.8 267.675,58.81 81.543,0.01 185.727,-6.63 268.298,-58.38"
         style="fill:#231f20;fill-opacity:1;fill-rule:nonzero;stroke:none"
         id="path18"
         inkscape:connector-curvature="0" /><path
         d="m 528.785,1118.64 c -54.941,-34.59 -100.176,-79.84 -134.437,-134.499 -40.125,-64 -39.207,-136.313 -38.395,-200.118 l 0.215,-26.898 -0.383,-27.437 c -1.16,-60.106 -2.617,-134.915 38.938,-200.899 34.593,-54.941 79.847,-100.176 134.5,-134.441 64.386,-40.364 137.148,-39.336 201.347,-38.434 l 26.465,0.25 27.774,-0.332 c 59.765,-1.082 134.152,-2.414 199.757,38.895 54.964,34.601 100.194,79.859 134.454,134.511 40.35,64.375 39.34,137.133 38.44,201.328 l -0.26,26.477 0.34,27.781 c 1.08,59.762 2.42,134.141 -38.89,199.758 -34.61,54.958 -79.86,100.188 -134.513,134.448 -64.387,40.36 -137.149,39.33 -201.348,38.43 l -26.465,-0.25 -27.754,0.34 c -59.777,1.08 -134.172,2.41 -199.785,-38.91 z M 577.77,471.789 c -42.922,26.906 -78.489,62.469 -105.704,105.699 -26.984,42.856 -25.921,97.539 -24.894,150.426 l 0.391,29.027 -0.219,28.247 c -0.684,53.691 -1.387,109.207 24.445,150.402 26.906,42.93 62.465,78.49 105.695,105.71 42.539,26.79 96.887,25.81 149.442,24.86 l 29.894,-0.36 -0.488,0.01 27.746,0.26 c 54.07,0.76 109.988,1.55 151.512,-24.48 42.918,-26.91 78.48,-62.469 105.71,-105.711 26.78,-42.535 25.81,-96.863 24.86,-149.414 l -0.36,-29.43 c 0,-0.015 0.27,-27.746 0.27,-27.746 0.75,-54.074 1.53,-109.988 -24.5,-151.512 -26.9,-42.914 -62.461,-78.48 -105.699,-105.703 C 893.336,445.293 839,446.27 786.449,447.211 l -29.414,0.352 -27.746,-0.258 c -54.078,-0.762 -109.992,-1.547 -151.519,24.484"
         style="fill:#231f20;fill-opacity:1;fill-rule:nonzero;stroke:none"
         id="path20"
         inkscape:connector-curvature="0" /></g></g></svg>