<svg id="Ebene_1" data-name="Ebene 1" xmlns="http://www.w3.org/2000/svg" viewBox="0 0 100 100" width="30px" height="30px"><defs><style>.cls-1{fill:#008ad1;}.cls-2{fill:#fff;}</style></defs><polygon class="cls-1" points="50.801 7.911 42.89 0 0 0 0 100 100 100 100 0 58.712 0 50.801 7.911"/><polygon class="cls-2" points="83.407 61.829 82.427 67.387 87.985 67.387 88.965 61.829 83.407 61.829"/><polygon class="cls-2" points="79.119 86.145 84.677 86.145 87.617 69.471 82.059 69.471 79.119 86.145"/><path class="cls-2" d="M75.07023,61.82907l-1.3475,7.642-4.16959,0a5.20567,5.20567,0,0,0-4.90221,4.16835v0l-.72254,4.09776-.74745,4.239,0,0a3.41021,3.41021,0,0,0,3.43339,4.16838v0h9.72623L80.628,61.82907Zm-3.92,22.23136a.86309.86309,0,0,1-.80049.69473h-1.423a.5647.5647,0,0,1-.55549-.69473l2.205-12.50514a.86308.86308,0,0,1,.80033-.69472h1.42326a.56469.56469,0,0,1,.55534.69472Z"/><path class="cls-2" d="M41.76622,69.47111H23.702l-2.94,16.67351h5.55787l2.5725-14.58931a.86311.86311,0,0,1,.80034-.69473H31.116a.56377.56377,0,0,1,.55557.69339L29.09883,86.14462h5.55781l2.57253-14.58931a.8631.8631,0,0,1,.80033-.69473h1.42326a.5647.5647,0,0,1,.55533.69473l-.31847,1.8063-.61835,3.50687-.19014,1.07832-1.44549,8.19782h5.55781l2.205-12.50513v0h0A3.41016,3.41016,0,0,0,41.76622,69.47111Z"/><path class="cls-2" d="M58.43978,69.4711H52.87959a5.20566,5.20566,0,0,0-4.90221,4.16835v0l-1.47,8.33676v0a3.41021,3.41021,0,0,0,3.43339,4.16838v0l5.559,0a5.2059,5.2059,0,0,0,4.90079-4.16132l0,0,.00005-.00029L60.647,80.5868H55.08918l-.61252,3.47363a.8631.8631,0,0,1-.80049.69473h-1.423a.5647.5647,0,0,1-.55549-.69473l.86055-4.88031a.844.844,0,0,1,.79729-.67754H61.0145l.8575-4.86311v0A3.41015,3.41015,0,0,0,58.43978,69.4711Zm-2.61871,6.96462a.844.844,0,0,1-.7974.6774h-1.423a.55323.55323,0,0,1-.5585-.67755l.86051-4.88031a.86308.86308,0,0,1,.80033-.69472h1.42326a.5647.5647,0,0,1,.55534.69472Z"/><polygon class="cls-2" points="19.536 69.471 13.976 69.471 12.996 75.03 18.555 75.03 19.536 69.471"/><path class="cls-2" d="M12.01544,80.588l-.98029,5.55842H13.12l-.147.83374-.049.27791,0,0a6.80815,6.80815,0,0,1-1.3635,3.05279c.04319.00134.08566.00437.12941.00437a5.21693,5.21693,0,0,0,4.86165-3.95489c.01518-.07091.03041-.14181.043-.21338l.0001-.00057L17.575,80.588Z"/></svg>