<svg id="Ebene_1" data-name="Ebene 1" xmlns="http://www.w3.org/2000/svg" viewBox="0 0 100 100"><defs><style>.cls-1{fill:#7b7c75;}</style></defs><path class="cls-1" d="M92.14958,22.59855l-2.808.81a4.8745,4.8745,0,0,0-2.15337,1.25728A8.87987,8.87987,0,0,0,85.693,27.44938L65.391,79.19772H62.67727L50.79319,54.04185,38.16329,79.19772H35.824L14.77313,29.51463q-.84057-1.97457-1.44985-3.09736a15.02056,15.02056,0,0,0-1.07491-1.75144,3.669,3.669,0,0,0-.98423-.94449,7.21563,7.21563,0,0,0-1.26339-.58483l-2.15033-.538V20.80228q2.33907.26745,8.70114.269,6.45479,0,9.8219-.269v1.79627l-3.45957.62864c-.49925.11921-.74938.39124-.74938.81a5.9452,5.9452,0,0,0,.515,1.92974q.51122,1.30363,1.54358,3.81974L40.59635,69.40333l8.88759-17.87706L39.75273,30.234a37.0725,37.0725,0,0,0-2.89919-5.346A3.52351,3.52351,0,0,0,34.609,23.31787l-3.74281-.71932V20.80228q2.61722.26745,10.9457.269,8.23221,0,10.38533-.269v1.79627l-4.30319.81q-1.31128.17881-1.30976,1.1666a4.01691,4.01691,0,0,0,.326,1.70763c.28325.83954.76415,2.0357,1.45291,3.59151l5.51819,12.48725,7.1117-14.91216a3.28716,3.28716,0,0,0,.23434-2.78355,2.23736,2.23736,0,0,0-1.91853-1.52932l-3.08819-.538V20.80228q2.33907.26745,8.79539.269a75.98663,75.98663,0,0,0,8.23245-.269v1.79627l-4.39794.81a6.81551,6.81551,0,0,0-4.86408,4.13151L55.28538,45.05747,66.42009,68.684,81.01487,32.92987q2.05557-4.85082,2.01023-7.00675a2.54581,2.54581,0,0,0-2.38517-2.60525l-3.83706-.71932V20.80228a47.18153,47.18153,0,0,0,7.11119.269q3.17964,0,5.33327-.04686a16.43391,16.43391,0,0,0,2.90225-.22212Z"/></svg>