<svg id="Ebene_1" data-name="Ebene 1" xmlns="http://www.w3.org/2000/svg" viewBox="0 0 100 100"><defs><style>.cls-1{fill:#b9b9b0;}.cls-2{fill:#7b7c75;}.cls-3{fill:#fff;}.cls-4{fill:#181716;}</style></defs><rect class="cls-1" x="23.53256" y="9.77495" width="52.94153" height="35.98622"/><polygon class="cls-2" points="67.645 45.761 76.474 45.761 72.06 53.407 67.645 61.053 67.645 45.761"/><rect class="cls-3" x="31.53256" y="17.72395" width="36.94153" height="4"/><rect class="cls-3" x="31.53256" y="25.76728" width="36.94153" height="4"/><rect class="cls-3" x="31.53256" y="33.72395" width="36.94153" height="4"/><circle class="cls-1" cx="36.24" cy="65.63383" r="4.58773"/><path class="cls-1" d="M36.24,70.253a8.33289,8.33289,0,0,0-8.33287,8.33287v8.33288H44.57284V78.5859A8.33289,8.33289,0,0,0,36.24,70.253Z"/><circle class="cls-1" cx="63.74011" cy="65.63383" r="4.58773"/><path class="cls-1" d="M63.74008,70.253a8.33289,8.33289,0,0,0-8.33287,8.33287v8.33288H72.073V78.5859A8.33289,8.33289,0,0,0,63.74008,70.253Z"/><rect class="cls-4" x="38.87937" y="90.00464" width="22.2219" height="2.45366"/><circle class="cls-2" cx="49.99003" cy="62.85096" r="6.11697"/><path class="cls-2" d="M49.99,69.0099a11.11052,11.11052,0,0,0-11.1105,11.11049v9.88425h22.221V80.12039A11.11051,11.11051,0,0,0,49.99,69.0099Z"/></svg>