<svg id="Ebene_1" data-name="Ebene 1" xmlns="http://www.w3.org/2000/svg" viewBox="0 0 100 100"><defs><style>.cls-1{fill:#008ad1;}</style></defs><path class="cls-1" d="M62.56866,77.62109h-25.293A6.7726,6.7726,0,0,1,30.514,70.85547V64.10156c0-10.36328,8.707-18.793,19.40625-18.793s19.40625,8.42969,19.40625,18.793v6.75391A6.76926,6.76926,0,0,1,62.56866,77.62109ZM49.92022,49.30859c-8.49609,0-15.40625,6.63672-15.40625,14.793v6.75391a2.76738,2.76738,0,0,0,2.76172,2.76562h25.293a2.76656,2.76656,0,0,0,2.75781-2.76562V64.10156C65.32647,55.94531,58.41631,49.30859,49.92022,49.30859Z"/><path class="cls-1" d="M49.66631,44.37891a10.999,10.999,0,1,1,11-11A11.0112,11.0112,0,0,1,49.66631,44.37891Zm0-17.998a6.999,6.999,0,1,0,7,6.998A7.00682,7.00682,0,0,0,49.66631,26.38086Z"/></svg>