<svg id="Ebene_1" data-name="Ebene 1" xmlns="http://www.w3.org/2000/svg" viewBox="0 0 100 100"><defs><style>.cls-1{fill:#b9b9b0;}.cls-2{fill:#181716;}.cls-3{fill:#7b7c75;}</style></defs><circle class="cls-1" cx="27.60657" cy="23.76266" r="7.479"/><path class="cls-1" d="M27.60652,31.293a13.58442,13.58442,0,0,0-13.5844,13.5844v13.5844h27.1688V44.87738A13.58443,13.58443,0,0,0,27.60652,31.293Z"/><circle class="cls-1" cx="72.43777" cy="23.76266" r="7.479"/><path class="cls-1" d="M72.43771,31.293a13.58443,13.58443,0,0,0-13.5844,13.5844v13.5844H86.02212V44.87738A13.58443,13.58443,0,0,0,72.43771,31.293Z"/><rect class="cls-2" x="31.90924" y="63.49242" width="36.22665" height="4"/><circle class="cls-3" cx="50.02213" cy="19.22598" r="9.972"/><path class="cls-3" d="M50.02206,29.2664A18.11257,18.11257,0,0,0,31.90952,47.37893V63.49242H68.13459V47.37893A18.11256,18.11256,0,0,0,50.02206,29.2664Z"/><polygon class="cls-3" points="53.839 71.281 51.01 74.109 57.635 80.734 37.401 80.734 37.401 84.734 57.635 84.734 51.038 91.332 53.866 94.16 65.292 82.734 53.839 71.281"/></svg>