<svg id="Ebene_1" data-name="Ebene 1" xmlns="http://www.w3.org/2000/svg" viewBox="0 0 100 100"><defs><style>.cls-1{fill:#a6a99c;}.cls-2{fill:#7b7c75;}.cls-3{fill:#fff;}.cls-4{fill:#181716;}</style></defs><rect class="cls-1" x="14" y="21.4" width="72" height="53.2"/><rect class="cls-2" x="14" y="21.4" width="72" height="12"/><rect class="cls-3" x="14" y="33.4" width="72" height="4"/><rect class="cls-3" x="18" y="25.4" width="4" height="4"/><rect class="cls-3" x="26" y="25.4" width="4" height="4"/><rect class="cls-3" x="34" y="25.4" width="4" height="4"/><rect class="cls-4" x="14" y="74.6" width="72" height="4"/><path class="cls-3" d="M48.8,65.8v.8h4v-.8A13.74376,13.74376,0,0,0,39.2,52.2h-.8v4h.8A9.7336,9.7336,0,0,1,48.8,65.8Z"/><path class="cls-3" d="M38.8,44.2H38v4h.8A17.75624,17.75624,0,0,1,56.4,65.8v.8h4v-.8A21.76716,21.76716,0,0,0,38.8,44.2Z"/><circle class="cls-3" cx="41.6" cy="63.4" r="3.2"/></svg>