<svg id="Ebene_1" data-name="Ebene 1" xmlns="http://www.w3.org/2000/svg" viewBox="0 0 100 100"><defs><style>.cls-1{fill:#a6a99c;}.cls-2{fill:#fff;}.cls-3{fill:#7b7c75;}.cls-4{fill:#181716;}.cls-5{fill:#b9b9b0;}</style></defs><polygon class="cls-1" points="68.298 11.176 20.739 11.176 20.739 86.824 79.266 86.824 79.266 22.145 68.298 11.176"/><rect class="cls-2" x="28.73949" y="30.58198" width="42.58143" height="50.54061"/><polygon class="cls-3" points="68.298 11.176 79.266 22.145 68.298 22.145 68.298 11.176"/><rect class="cls-4" x="20.73928" y="86.82417" width="58.52734" height="4"/><circle class="cls-5" cx="50.00096" cy="42.38632" r="7.479"/><path class="cls-5" d="M50.0009,49.91663A13.58443,13.58443,0,0,0,36.4165,63.501v13.5844H63.5853V63.501A13.58444,13.58444,0,0,0,50.0009,49.91663Z"/><path class="cls-2" d="M47.357,74.31717l-6.84166-6.84165A1.58,1.58,0,0,1,42.74989,65.241L47.357,69.84814l9.89173-9.891a1.58,1.58,0,0,1,2.23452,2.23451Z"/></svg>