<svg id="Ebene_1" data-name="Ebene 1" xmlns="http://www.w3.org/2000/svg" viewBox="0 0 100 100"><defs><style>.cls-1{fill:#a6a99c;}.cls-2{fill:#181716;}.cls-3{fill:#fff;}</style></defs><rect class="cls-1" x="14" y="21.43395" width="72" height="53.13211"/><rect class="cls-2" x="13.99921" y="74.56605" width="72" height="4"/><path class="cls-3" d="M50.02176,51.3076a3.30789,3.30789,0,0,0,0-6.6152,3.3076,3.3076,0,0,0,0,6.6152Z"/><path class="cls-3" d="M57.24625,50.65478c0,.22033-.0187.43606-.03315.65282H61.13c.01037-.218.03316-.43249.03316-.65282A13.87418,13.87418,0,0,0,47.367,36.85862c-.22033,0-.43487.02278-.65282.03315v3.91689c.21676-.01445.43249-.03315.65282-.03315A9.95252,9.95252,0,0,1,57.24625,50.65478Z"/><path class="cls-3" d="M47.367,29.02483c-.2205,0-.434.02652-.65282.033v3.91706c.21846-.00816.43249-.03315.65282-.03315A17.79525,17.79525,0,0,1,65.08,50.65478c0,.22033-.025.43436-.03315.65282H68.964c.00646-.2188.033-.43232.033-.65282A21.6918,21.6918,0,0,0,47.367,29.02483Z"/><path class="cls-3" d="M42.75375,45.34522c0-.22033.0187-.43606.03315-.65282H38.87c-.01037.218-.03316.43249-.03316.65282A13.87418,13.87418,0,0,0,52.633,59.14138c.22033,0,.43487-.02278.65282-.03315V55.19134c-.21676.01445-.43249.03315-.65282.03315A9.95252,9.95252,0,0,1,42.75375,45.34522Z"/><path class="cls-3" d="M52.633,66.97517c.2205,0,.434-.02652.65282-.033V63.02513c-.21846.00816-.43249.03315-.65282.03315A17.79525,17.79525,0,0,1,34.92,45.34522c0-.22033.025-.43436.03315-.65282H31.03605c-.00646.2188-.033.43232-.033.65282A21.6918,21.6918,0,0,0,52.633,66.97517Z"/></svg>