<svg id="Ebene_1" data-name="Ebene 1" xmlns="http://www.w3.org/2000/svg" viewBox="0 0 100 100"><defs><style>.cls-1{fill:#7b7c75;}.cls-2{fill:#b9b9b0;}.cls-3{fill:#fff;}.cls-4{fill:#181716;}</style></defs><rect class="cls-1" x="-15.90627" y="42.04359" width="76.75585" height="15.91285" transform="translate(-27.52836 72.47167) rotate(-90)"/><rect class="cls-2" x="19.96614" y="22.08401" width="76.75586" height="55.83197" transform="translate(8.34408 108.34406) rotate(-90)"/><rect class="cls-3" x="20.47266" y="23.43664" width="4" height="26.66602"/><rect class="cls-3" x="41.17969" y="23.4464" width="32.98438" height="4"/><rect class="cls-3" x="41.17969" y="34.77453" width="32.98438" height="4"/><rect class="cls-3" x="41.17969" y="46.10265" width="32.98438" height="4"/><path class="cls-1" d="M62.69531,76.78906H52.61719V75.44141a5.7534,5.7534,0,0,0,1.90625-.24219,1.33981,1.33981,0,0,0,.83984-.72266,3.7574,3.7574,0,0,0,.19922-1.3789V60.61719a2.50418,2.50418,0,0,0-.53516-1.81641,3.68375,3.68375,0,0,0-2.41015-.52734V56.92578H62.69531v1.34766a5.49535,5.49535,0,0,0-1.90234.25,1.3811,1.3811,0,0,0-.84375.72265,3.71124,3.71124,0,0,0-.19922,1.3711V73.09766a3.77345,3.77345,0,0,0,.19141,1.332,1.40922,1.40922,0,0,0,.8125.75,5.40959,5.40959,0,0,0,1.9414.26172Z"/><rect class="cls-4" x="14.51563" y="84.37804" width="71.74609" height="4"/></svg>