<svg id="Ebene_1" data-name="Ebene 1" xmlns="http://www.w3.org/2000/svg" viewBox="0 0 100 100"><defs><style>.cls-1{fill:#181716;}.cls-2{fill:#b9b9b0;}.cls-3{fill:#fff;}</style></defs><rect class="cls-1" x="22.04911" y="81.3165" width="56.01857" height="4"/><circle class="cls-2" cx="50.05839" cy="43.11771" r="28.47314"/><path class="cls-3" d="M48.67792,58.51224a1.99885,1.99885,0,0,1-2-2V55.606a2,2,0,1,1,4,0v.90625A1.99885,1.99885,0,0,1,48.67792,58.51224Zm0-8.24219a1.87,1.87,0,0,1-2-1.84179v-.31641c0-4.666,2.64063-6.31445,4.76563-7.63867.35156-.21875.707-.44141,1.05859-.6836,2.07031-1.44726,3.07031-2.22851,3.07031-4.05078,0-3.625-3.80468-4.01562-5.4414-4.01562-3.46094,0-5.55469,1.65625-5.7461,4.541a2.02412,2.02412,0,0,1-2.1289,1.86524,2.00124,2.00124,0,0,1-1.86328-2.127c.332-5.02929,4.15234-8.27929,9.73828-8.27929,5.64843,0,9.4414,3.2207,9.4414,8.01562,0,3.98633-2.65625,5.84375-4.78515,7.33594-.418.28516-.82422.541-1.22657.793-1.85937,1.1582-2.88281,1.79687-2.88281,4.24414A2.13992,2.13992,0,0,1,48.67792,50.27005Z"/></svg>