<svg id="Ebene_1" data-name="Ebene 1" xmlns="http://www.w3.org/2000/svg" viewBox="0 0 100 100"><defs><style>.cls-1{fill:#b9b9b0;}.cls-2{fill:#181716;}.cls-3{fill:#7b7c75;}</style></defs><circle class="cls-1" cx="27.67428" cy="32.93789" r="7.479"/><path class="cls-1" d="M27.67423,40.4682A13.58444,13.58444,0,0,0,14.08982,54.0526V67.637H41.25863V54.0526A13.58443,13.58443,0,0,0,27.67423,40.4682Z"/><circle class="cls-1" cx="72.50548" cy="32.93789" r="7.479"/><path class="cls-1" d="M72.50542,40.4682A13.58443,13.58443,0,0,0,58.921,54.0526V67.637h27.1688V54.0526A13.58443,13.58443,0,0,0,72.50542,40.4682Z"/><rect class="cls-2" x="31.97695" y="72.66764" width="36.22665" height="4"/><circle class="cls-3" cx="50.08984" cy="28.4012" r="9.972"/><path class="cls-3" d="M50.08977,38.44162A18.11257,18.11257,0,0,0,31.97723,56.55415V72.66764H68.2023V56.55415A18.11256,18.11256,0,0,0,50.08977,38.44162Z"/><path class="cls-3" d="M50.08977,38.44162A18.11257,18.11257,0,0,0,31.97723,56.55415V72.66764H68.2023V56.55415A18.11256,18.11256,0,0,0,50.08977,38.44162Z"/></svg>