<svg id="Ebene_1" data-name="Ebene 1" xmlns="http://www.w3.org/2000/svg" viewBox="0 0 100 100"><defs><style>.cls-1{fill:#7b7c75;}.cls-2{fill:#181716;}.cls-3{fill:#b9b9b0;}</style></defs><circle class="cls-1" cx="49.99996" cy="48.12208" r="7.479"/><path class="cls-1" d="M49.9999,55.65239a13.58443,13.58443,0,0,0-13.5844,13.5844V82.8212H63.5843V69.23679A13.58443,13.58443,0,0,0,49.9999,55.65239Z"/><rect class="cls-2" x="36.4155" y="82.8212" width="27.1688" height="4"/><path class="cls-3" d="M49.99951,13.1788A34.92831,34.92831,0,0,0,31.21375,77.563V72.68735A30.94418,30.94418,0,1,1,68.786,72.687V77.563A34.92821,34.92821,0,0,0,49.99951,13.1788Z"/><path class="cls-3" d="M49.99951,21.296A26.8078,26.8078,0,0,0,31.30957,67.339a18.6325,18.6325,0,0,1,1.10986-4.67529,22.82586,22.82586,0,1,1,35.16089-.00012,18.63329,18.63329,0,0,1,1.10987,4.67553A26.80772,26.80772,0,0,0,49.99951,21.296Z"/><path class="cls-3" d="M37.50952,55.2319a14.3864,14.3864,0,1,1,24.98071-.00006,18.86518,18.86518,0,0,1,2.78858,3.10187A18.38616,18.38616,0,1,0,34.721,58.33359,18.86735,18.86735,0,0,1,37.50952,55.2319Z"/></svg>