<svg id="Ebene_1" data-name="Ebene 1" xmlns="http://www.w3.org/2000/svg" viewBox="0 0 100 100"><defs><style>.cls-1{fill:#7b7c75;}.cls-2{fill:#181716;}.cls-3{fill:#fff;}.cls-4{fill:#b9b9b0;}</style></defs><rect class="cls-1" x="38.23474" y="8.18466" width="4" height="17.42969"/><rect class="cls-2" x="22.5199" y="14.91752" width="55.12109" height="4"/><rect class="cls-3" x="22.5199" y="18.91752" width="55.12109" height="67.42432"/><rect class="cls-1" x="38.23474" y="8.18466" width="4" height="17.42969"/><rect class="cls-4" x="22.5199" y="41.48153" width="15.71842" height="12.28125"/><rect class="cls-4" x="22.5199" y="18.91752" width="55.14029" height="18.57813"/><rect class="cls-4" x="61.94177" y="41.48153" width="15.71842" height="12.28125"/><rect class="cls-4" x="61.94177" y="57.76278" width="15.71842" height="12.28125"/><rect class="cls-4" x="42.21733" y="57.76278" width="15.71842" height="12.28125"/><rect class="cls-4" x="22.5199" y="57.76278" width="15.71842" height="12.28125"/><rect class="cls-4" x="22.5199" y="74.04403" width="15.71842" height="12.28125"/><rect class="cls-4" x="42.21733" y="74.04403" width="15.71842" height="12.28125"/><rect class="cls-4" x="61.94177" y="74.04403" width="15.71842" height="12.28125"/><rect class="cls-1" x="42.21733" y="41.48144" width="15.71842" height="12.28125"/><rect class="cls-1" x="38.2406" y="8.18465" width="4" height="17.43026"/><rect class="cls-2" x="22.5295" y="86.34184" width="55.12109" height="4"/><rect class="cls-1" x="57.94177" y="8.18466" width="4" height="17.42969"/></svg>