<svg id="Ebene_1" data-name="Ebene 1" xmlns="http://www.w3.org/2000/svg" viewBox="0 0 100 100"><defs><style>.cls-1{fill:#a6a99c;}.cls-2{fill:#fff;}.cls-3{fill:#7b7c75;}.cls-4{fill:#181716;}</style></defs><polygon class="cls-1" points="50.41 45.349 36.553 25.956 14.029 25.956 14.029 87.787 86.029 87.787 86.029 45.349 50.41 45.349"/><polygon class="cls-1" points="73.918 14.593 73.911 14.593 69.533 10.214 21.974 10.214 21.974 14.593 21.974 16.948 21.974 21.956 39.281 21.956 53.139 41.349 80.501 41.349 80.501 29.621 80.501 21.183 80.501 21.176 73.918 14.593"/><polygon class="cls-2" points="43.451 27.781 72.556 27.781 72.556 23.781 40.585 23.781 43.451 27.781"/><polygon class="cls-2" points="50.085 37.076 72.556 37.076 72.556 33.076 47.227 33.076 50.085 37.076"/><rect class="cls-2" x="29.91986" y="52.49585" width="42.63612" height="29.30037"/><path class="cls-3" d="M47.89391,76.94081l-8.66015-8.66016a1.99978,1.99978,0,0,1,2.82812-2.82812l5.832,5.832L60.41344,58.765a1.99979,1.99979,0,0,1,2.82813,2.82812Z"/><rect class="cls-4" x="14.03063" y="87.78651" width="72" height="4"/><polygon class="cls-3" points="69.533 10.208 80.501 21.176 69.533 21.176 69.533 10.208"/></svg>