<svg id="Ebene_1" data-name="Ebene 1" xmlns="http://www.w3.org/2000/svg" viewBox="0 0 100 100"><defs><style>.cls-1{fill:#7b7c75;}.cls-2{fill:#b9b9b0;}.cls-3{fill:#fff;}.cls-4{fill:#181716;}</style></defs><rect class="cls-1" x="-15.90627" y="42.04359" width="76.75585" height="15.91285" transform="translate(-27.52836 72.47167) rotate(-90)"/><rect class="cls-2" x="19.96614" y="22.08401" width="76.75586" height="55.83197" transform="translate(8.34408 108.34406) rotate(-90)"/><rect class="cls-3" x="20.47266" y="23.43664" width="4" height="26.66602"/><rect class="cls-3" x="41.17969" y="23.4464" width="32.98438" height="4"/><rect class="cls-3" x="41.17969" y="34.77453" width="32.98438" height="4"/><rect class="cls-3" x="41.17969" y="46.10265" width="32.98438" height="4"/><path class="cls-1" d="M69.26172,76.78906H59.48828V75.44141a4.9066,4.9066,0,0,0,1.81641-.26172,1.33564,1.33564,0,0,0,.793-.76563,4.02742,4.02742,0,0,0,.17578-1.3164V67.13672H53.05859v5.96094a2.5851,2.5851,0,0,0,.51172,1.78515,3.3348,3.3348,0,0,0,2.34375.5586v1.34765H46.07031V75.44141a4.90273,4.90273,0,0,0,1.8086-.26172,1.3772,1.3772,0,0,0,.80859-.75781,3.88826,3.88826,0,0,0,.18359-1.32422V60.61719a3.92483,3.92483,0,0,0-.17968-1.3125,1.394,1.394,0,0,0-.77344-.75391,4.67032,4.67032,0,0,0-1.84766-.27734V56.92578h9.84375v1.34766a3.40856,3.40856,0,0,0-2.33594.543,2.54389,2.54389,0,0,0-.51953,1.80078v4.89062h9.21485V60.61719a4.3366,4.3366,0,0,0-.16016-1.3125,1.34168,1.34168,0,0,0-.76562-.75391,4.69666,4.69666,0,0,0-1.85938-.27734V56.92578h9.77344v1.34766a4.65722,4.65722,0,0,0-1.84766.27734,1.36144,1.36144,0,0,0-.76953.75391,4.07137,4.07137,0,0,0-.168,1.3125V73.09766a4.32454,4.32454,0,0,0,.15235,1.28125,1.35812,1.35812,0,0,0,.76953.76953,4.53057,4.53057,0,0,0,1.86328.293Z"/><rect class="cls-4" x="14.51563" y="84.37804" width="71.74609" height="4"/></svg>