<svg id="Ebene_1" data-name="Ebene 1" xmlns="http://www.w3.org/2000/svg" viewBox="0 0 100 100"><defs><style>.cls-1{fill:#a6a99c;}.cls-2{fill:#fff;}.cls-3{fill:#7b7c75;}.cls-4{fill:#181716;}</style></defs><polygon class="cls-1" points="68.37 11.176 20.811 11.176 20.811 86.824 79.339 86.824 79.339 22.145 68.37 11.176"/><rect class="cls-2" x="28.81168" y="51.82222" width="42.58143" height="29.30037"/><rect class="cls-2" x="28.80982" y="30.58198" width="42.58203" height="4"/><rect class="cls-2" x="28.80982" y="39.87691" width="42.58203" height="4"/><polygon class="cls-3" points="68.37 11.176 79.339 22.145 68.37 22.145 68.37 11.176"/><rect class="cls-4" x="20.81148" y="86.82417" width="58.52734" height="4"/><path class="cls-3" d="M51.17419,68.7724v-5.2a1.1,1.1,0,0,0-2.2,0v5.8c0,.2.1.3.2.5l3.1,3.1a1.13137,1.13137,0,1,0,1.6-1.6l-2.7-2.6Z"/><path class="cls-3" d="M51.77419,57.6724v-2h.9a1.1,1.1,0,0,0,0-2.2h-5.2a1.1,1.1,0,1,0,0,2.2h.9v2a11.00022,11.00022,0,1,0,3.4,0Zm-1.8,18.5a7.70066,7.70066,0,1,1,7.6-7.7A7.49546,7.49546,0,0,1,49.97419,76.1724Z"/></svg>