<svg id="Ebene_1" data-name="Ebene 1" xmlns="http://www.w3.org/2000/svg" viewBox="0 0 100 100"><defs><style>.cls-1{fill:#181716;}.cls-2{fill:#7b7c75;}.cls-3{fill:#b9b9b0;}.cls-4{fill:#a6a99c;}</style></defs><polyline class="cls-1" points="62.326 88.172 62.326 92.172 37.674 92.172 37.674 88.172"/><circle class="cls-2" cx="50.00001" cy="14.85682" r="6.78715"/><path class="cls-2" d="M50,21.69053A12.32779,12.32779,0,0,0,37.67219,34.0183V46.34607H62.32773V34.0183A12.32779,12.32779,0,0,0,50,21.69053Z"/><circle class="cls-2" cx="50.00001" cy="58.68464" r="6.78715"/><path class="cls-2" d="M50,65.51836A12.32779,12.32779,0,0,0,37.67219,77.84613V88.17246H62.32773V77.84613A12.32779,12.32779,0,0,0,50,65.51836Z"/><circle class="cls-3" cx="23.48036" cy="37.76521" r="6.78715"/><path class="cls-3" d="M23.48031,44.59893A12.32779,12.32779,0,0,0,11.15254,56.9267V69.25447H35.80808V56.9267A12.32779,12.32779,0,0,0,23.48031,44.59893Z"/><circle class="cls-4" cx="76.51977" cy="37.76521" r="6.78715"/><path class="cls-4" d="M76.51971,44.59893A12.32779,12.32779,0,0,0,64.192,56.9267V69.25447H88.84748V56.9267A12.32779,12.32779,0,0,0,76.51971,44.59893Z"/></svg>