<svg id="Ebene_1" data-name="Ebene 1" xmlns="http://www.w3.org/2000/svg" viewBox="0 0 100 100"><defs><style>.cls-1{fill:#008ad1;}</style></defs><path class="cls-1" d="M75.4684,28.35989H24.53578a5.20844,5.20844,0,0,0-5.2041,5.2002V66.44a5.20844,5.20844,0,0,0,5.2041,5.2002H75.4684A5.20552,5.20552,0,0,0,80.66762,66.44V33.56009A5.20552,5.20552,0,0,0,75.4684,28.35989Zm-.761,4L51.01918,49.96732a1.47789,1.47789,0,0,1-1.78027-.00684L25.3174,32.35989Zm.761,35.28028H24.53578a1.20324,1.20324,0,0,1-1.2041-1.2002v-30.574L46.85609,53.17337A5.60576,5.60576,0,0,0,50.17152,54.271a5.3581,5.3581,0,0,0,3.23535-1.09375L76.66762,35.88785V66.44A1.20094,1.20094,0,0,1,75.4684,67.64017Z"/></svg>