<?xml version="1.0" encoding="utf-8"?>
<!-- Generator: Adobe Illustrator 24.0.3, SVG Export Plug-In . SVG Version: 6.00 Build 0)  -->
<svg version="1.1" id="Ebene_1" xmlns="http://www.w3.org/2000/svg" xmlns:xlink="http://www.w3.org/1999/xlink" x="0px" y="0px"
	 viewBox="0 0 25 25" style="enable-background:new 0 0 25 25;" xml:space="preserve">
<style type="text/css">
	.st0{fill:#008AD1;}
</style>
<path class="st0" d="M13.6,6c-3,0-5.4,2.4-5.4,5.4c0,1.3,0.4,2.5,1.2,3.4L6.2,18c-0.2,0.2-0.2,0.5,0,0.7c0.1,0.1,0.2,0.1,0.4,0.1
	s0.3,0,0.4-0.1l3.1-3.1c1,0.8,2.2,1.3,3.5,1.3c3,0,5.4-2.4,5.4-5.4C19,8.5,16.6,6,13.6,6z M13.6,15.9c-2.4,0-4.4-2-4.4-4.4
	c0-2.4,2-4.4,4.4-4.4S18,9,18,11.5C18,13.9,16,15.9,13.6,15.9z"/>
</svg>
