<svg id="Ebene_1" data-name="Ebene 1" xmlns="http://www.w3.org/2000/svg" viewBox="0 0 100 100"><defs><style>.cls-1{fill:#7b7c75;}.cls-2{fill:#181716;}.cls-3{fill:#a6a99c;}.cls-4{fill:#fff;}</style></defs><rect class="cls-1" x="34.56041" y="42.04309" width="76.75585" height="15.91285" transform="translate(22.93882 122.93785) rotate(-90)"/><rect class="cls-2" x="64.9828" y="84.37839" width="15.91016" height="4"/><rect class="cls-3" x="0.15251" y="30.574" width="76.75585" height="38.85198" transform="translate(-11.46955 88.53043) rotate(-90)"/><rect class="cls-2" x="19.10468" y="84.37887" width="38.85174" height="4"/><rect class="cls-4" x="25.06171" y="23.43746" width="26.9375" height="4"/><rect class="cls-4" x="25.06171" y="31.43147" width="26.9375" height="4"/><rect class="cls-4" x="25.06171" y="39.42548" width="26.9375" height="4"/><rect class="cls-4" x="25.06171" y="47.41948" width="26.9375" height="4"/><path class="cls-4" d="M71.063,32.62677l-.9125,3.71043H68.1721L71.692,23.43746H74.1847L77.70457,36.3372H75.72464l-.93109-3.71043Zm1.904-7.38212h-.03873L71.52,30.83817h2.83511Z"/><path class="cls-4" d="M76.82848,58.53063v1.78859H69.04665V58.96829l5.65162-9.761H69.04665V47.41948h7.78183v1.50277l-5.51839,9.60838Z"/><polygon class="cls-4" points="76.367 40.895 69.509 40.895 69.509 42.683 75.161 42.683 76.367 42.683 76.367 40.895"/></svg>