<?xml version="1.0" encoding="utf-8"?>
<!-- Generator: Adobe Illustrator 24.0.3, SVG Export Plug-In . SVG Version: 6.00 Build 0)  -->
<svg version="1.1" id="Ebene_1" xmlns="http://www.w3.org/2000/svg" xmlns:xlink="http://www.w3.org/1999/xlink" x="0px" y="0px"
	 viewBox="0 0 25 25" style="enable-background:new 0 0 25 25;" xml:space="preserve">
<style type="text/css">
	.st0{fill:#B9B9B0;}
	.st1{fill:#FFFFFF;}
	.st2{fill:#7B7C75;}
</style>
<polygon class="st0" points="21.5,19.1 21.5,0.5 3.5,0.5 3.5,24.5 16.1,24.5 "/>
<path class="st1" d="M15.5,18.5h5c0,0,0,0,0-0.1c0-0.5,0-0.9,0-1.4c0-3.5,0-7,0-10.6h-16v17h11V18.5z"/>
<g>
	<path class="st2" d="M9.5,19.3l-0.1-0.6c0.6,0,1.1-0.1,1.6-0.2c0.5-0.1,0.9-0.3,1.3-0.5c0.3-0.2,0.6-0.5,0.8-0.8
		c0.2-0.3,0.3-0.6,0.3-1c0-0.6-0.2-1.1-0.6-1.5c-0.4-0.4-0.9-0.5-1.6-0.5c-0.5,0-1,0.1-1.5,0.2l0,0l0.4-4.8c0.8,0,1.7,0,2.6,0
		c1,0,1.8,0,2.5,0l0,0.1l-0.2,1.7h-4.3l-0.2,1.6c0.5-0.1,0.9-0.1,1.4-0.1c1,0,1.8,0.3,2.5,0.8c0.6,0.5,0.9,1.2,0.9,2
		c0,0.5-0.1,1-0.3,1.5s-0.6,0.9-1.1,1.2S13,18.8,12.3,19C11.5,19.2,10.6,19.3,9.5,19.3z"/>
</g>
</svg>
