<?xml version="1.0" encoding="utf-8"?>
<!-- Generator: Adobe Illustrator 24.0.3, SVG Export Plug-In . SVG Version: 6.00 Build 0)  -->
<svg version="1.1" id="Ebene_1" xmlns="http://www.w3.org/2000/svg" xmlns:xlink="http://www.w3.org/1999/xlink" x="0px" y="0px"
	 viewBox="0 0 25 25" style="enable-background:new 0 0 25 25;" xml:space="preserve">
<style type="text/css">
	.st0{fill:#008BD2;}
</style>
<g id="Layer_1">
	<path class="st0" d="M23.6,9.9l-1.7-0.3c-0.2-0.6-0.4-1.1-0.7-1.7l1-1.4c0.4-0.6,0.4-1.4-0.2-2L20.5,3c-0.3-0.3-0.7-0.5-1.1-0.5
		c-0.3,0-0.6,0.1-0.9,0.3l-1.4,1c-0.6-0.3-1.2-0.5-1.8-0.7L15,1.4c-0.1-0.7-0.8-1.3-1.5-1.3h-2.2c-0.8,0-1.4,0.5-1.5,1.3L9.5,3.2
		C8.9,3.4,8.4,3.6,7.8,3.9l-1.4-1C6.2,2.6,5.9,2.5,5.6,2.5C5.1,2.5,4.8,2.7,4.5,3L2.9,4.5C2.4,5,2.3,5.9,2.7,6.5l1,1.5
		C3.5,8.5,3.3,9.1,3.1,9.7L1.4,10c-0.7,0.1-1.3,0.8-1.3,1.5v2.2c0,0.8,0.5,1.4,1.3,1.5l1.7,0.3c0.2,0.6,0.4,1.1,0.7,1.7l-1,1.4
		c-0.4,0.6-0.4,1.4,0.2,2l1.5,1.5c0.3,0.3,0.7,0.4,1.1,0.4c0.3,0,0.6-0.1,0.9-0.3l1.5-1c0.5,0.3,1.1,0.5,1.6,0.7l0.3,1.7
		c0.1,0.7,0.8,1.3,1.5,1.3h2.2c0.8,0,1.4-0.5,1.5-1.3l0.3-1.7c0.6-0.2,1.1-0.4,1.7-0.7l1.4,1c0.3,0.2,0.6,0.3,0.9,0.3
		c0.4,0,0.8-0.2,1.1-0.5l1.5-1.5c0.5-0.5,0.6-1.4,0.2-2l-1-1.4c0.3-0.5,0.5-1.1,0.7-1.7l1.7-0.3c0.7-0.1,1.3-0.8,1.3-1.5v-2.2
		C24.9,10.7,24.4,10,23.6,9.9z M12.5,17.8c-3,0-5.3-2.4-5.3-5.3c0-3,2.4-5.3,5.3-5.3c3,0,5.3,2.4,5.3,5.3S15.5,17.8,12.5,17.8z"/>
</g>
</svg>
