<svg id="Ebene_1" data-name="Ebene 1" xmlns="http://www.w3.org/2000/svg" viewBox="0 0 100 100"><defs><style>.cls-1{fill:#008ad1;}</style></defs><path class="cls-1" d="M31.57392,79.03991a1.80255,1.80255,0,0,1-1.80078-1.80078V27.286a1.79492,1.79492,0,0,1,.23437-.88868,1.765,1.765,0,0,1,.668-.67773c.5625-.32227,5.92569-3.02539,20.97266,1.54688,12.67187,3.85546,15.11328-.6875,15.13672-.73243a1.83869,1.83869,0,0,1,2.03906-.97656,1.78156,1.78156,0,0,1,1.40234,1.7207V53.12a1.81587,1.81587,0,0,1-.13672.68945c-.32812.78516-3.64843,7.55469-19.48837,2.74219C40.47236,53.47351,35.3122,53.96569,33.3747,54.411V77.23913A1.80255,1.80255,0,0,1,31.57392,79.03991Zm5.27344-28.5664a51.84959,51.84959,0,0,1,14.80078,2.63281c10.96093,3.33594,14.26562.38867,14.97656-.498v-21.373c-2.78516,1.33007-7.65625,2.01757-16.02353-.52344-10.12881-3.082-15.289-2.58985-17.22647-2.14258v22.166A20.84676,20.84676,0,0,1,36.84736,50.47351Z"/></svg>