<svg id="Ebene_1" data-name="Ebene 1" xmlns="http://www.w3.org/2000/svg" viewBox="0 0 100 100"><defs><style>.cls-1{fill:#a6a99c;}.cls-2{fill:#fff;}.cls-3{fill:#181716;}</style></defs><rect class="cls-1" x="18.45804" y="22.4909" width="63.08422" height="53.06646"/><rect class="cls-2" x="22.44215" y="26.73215" width="15.71842" height="12.28125"/><rect class="cls-2" x="61.83701" y="26.73215" width="15.71842" height="12.28125"/><rect class="cls-2" x="61.83701" y="43.0134" width="15.71842" height="12.28125"/><rect class="cls-2" x="42.13958" y="43.0134" width="15.71842" height="12.28125"/><rect class="cls-2" x="22.44215" y="43.0134" width="15.71842" height="12.28125"/><rect class="cls-2" x="22.44215" y="59.29465" width="15.71842" height="12.28125"/><rect class="cls-2" x="42.13958" y="59.29465" width="15.71842" height="12.28125"/><rect class="cls-2" x="61.83701" y="59.29465" width="15.71842" height="12.28125"/><polygon class="cls-2" points="55.915 29.202 51.363 33.753 51.363 22.491 48.615 22.491 48.615 33.753 44.083 29.221 42.14 31.164 49.989 39.013 57.858 31.145 55.915 29.202"/><rect class="cls-3" x="18.45804" y="75.55735" width="63.08422" height="4"/></svg>