<svg id="Ebene_1" data-name="Ebene 1" xmlns="http://www.w3.org/2000/svg" viewBox="0 0 100 100"><defs><style>.cls-1{fill:#7b7c75;}.cls-2{fill:#fff;}.cls-3{fill:#181716;}.cls-4{fill:#b9b9b0;}.cls-5{fill:#576065;}.cls-6{fill:#a6a99c;}</style></defs><rect class="cls-1" x="-15.90627" y="42.04359" width="76.75585" height="15.91285" transform="translate(-27.52836 72.47167) rotate(-90)"/><rect class="cls-2" x="20.47266" y="23.43664" width="4" height="26.5625"/><rect class="cls-3" x="14.51563" y="84.37804" width="15.91246" height="4"/><rect class="cls-4" x="16.07855" y="25.9704" width="76.75586" height="48.05746" transform="translate(4.45735 104.4556) rotate(-90)"/><rect class="cls-5" x="75.63759" y="61.22912" width="13.47015" height="7.77484" transform="translate(17.25613 147.4892) rotate(-90)"/><rect class="cls-6" x="75.63759" y="43.75896" width="13.47015" height="7.77484" transform="translate(34.72628 130.01905) rotate(-90)"/><rect class="cls-3" x="75.63759" y="26.28881" width="13.47015" height="7.77484" transform="translate(52.19643 112.5489) rotate(-90)"/><rect class="cls-3" x="30.42775" y="84.37804" width="48.05746" height="4"/><polygon class="cls-2" points="52.569 23.441 41.18 23.441 41.18 50.103 67.733 50.103 67.733 23.441 56.77 23.441 52.569 23.441"/></svg>