<svg id="Ebene_1" data-name="Ebene 1" xmlns="http://www.w3.org/2000/svg" viewBox="0 0 100 100"><defs><style>.cls-1{fill:#008ad1;}</style></defs><path class="cls-1" d="M49.93781,95.332A45.332,45.332,0,1,1,95.26984,50,45.38346,45.38346,0,0,1,49.93781,95.332Zm0-86.66406A41.332,41.332,0,1,0,91.26984,50,41.3795,41.3795,0,0,0,49.93781,8.668Z"/><path class="cls-1" d="M49.93781,40.53516a8.73035,8.73035,0,0,1-8.86719-8.56641,8.87254,8.87254,0,0,1,17.73437,0A8.73035,8.73035,0,0,1,49.93781,40.53516Zm0-13.13086a4.72811,4.72811,0,0,0-4.86719,4.56445,4.87709,4.87709,0,0,0,9.73437,0A4.72811,4.72811,0,0,0,49.93781,27.4043Z"/><path class="cls-1" d="M49.93781,76.59766A8.57151,8.57151,0,1,1,58.805,68.03125,8.73035,8.73035,0,0,1,49.93781,76.59766Zm0-13.13282A4.5757,4.5757,0,1,0,54.805,68.03125,4.72843,4.72843,0,0,0,49.93781,63.46484Z"/><path class="cls-1" d="M49.93781,58.56641A8.57151,8.57151,0,1,1,58.805,50,8.73035,8.73035,0,0,1,49.93781,58.56641Zm0-13.13282A4.5757,4.5757,0,1,0,54.805,50,4.7297,4.7297,0,0,0,49.93781,45.43359Z"/></svg>