<svg id="Ebene_1" data-name="Ebene 1" xmlns="http://www.w3.org/2000/svg" viewBox="0 0 100 100"><defs><style>.cls-1{fill:#7b7c75;}.cls-2{fill:#b9b9b0;}.cls-3{fill:#fff;}.cls-4{fill:#181716;}</style></defs><rect class="cls-1" x="-15.90627" y="42.04359" width="76.75585" height="15.91285" transform="translate(-27.52836 72.47167) rotate(-90)"/><rect class="cls-2" x="19.96614" y="22.08401" width="76.75586" height="55.83197" transform="translate(8.34408 108.34406) rotate(-90)"/><rect class="cls-3" x="20.47266" y="23.43664" width="4" height="26.66602"/><rect class="cls-3" x="41.17969" y="23.4464" width="32.98438" height="4"/><rect class="cls-3" x="41.17969" y="34.77453" width="32.98438" height="4"/><rect class="cls-3" x="41.17969" y="46.10265" width="32.98438" height="4"/><path class="cls-1" d="M65.24609,71.08984a5.50931,5.50931,0,0,1-.39453,1.957,6.94654,6.94654,0,0,1-1.19531,1.97656,6.06931,6.06931,0,0,1-2.01563,1.53906,6.34017,6.34017,0,0,1-2.8125.59375,7.7414,7.7414,0,0,1-3.14062-.6875A6.91392,6.91392,0,0,1,53.043,74.41406a8.10364,8.10364,0,0,0-.60156,2.00782H51.09375V69.625h1.34766a13.525,13.525,0,0,0,1.01171,2.75391,6.49975,6.49975,0,0,0,1.82422,2.21875,4.52156,4.52156,0,0,0,2.89454.93359,3.4271,3.4271,0,0,0,2.39453-.82031,2.68706,2.68706,0,0,0,.89843-2.06641,2.62221,2.62221,0,0,0-.27734-1.23047,2.9985,2.9985,0,0,0-.80469-.94531,9.12761,9.12761,0,0,0-1.44531-.89453q-.91407-.47461-2.08594-1.00391a17.50758,17.50758,0,0,1-2.96094-1.71093,8.44347,8.44347,0,0,1-1.75-1.67969,5.38506,5.38506,0,0,1-.82031-1.54688,5.03712,5.03712,0,0,1-.22656-1.47656,5.34476,5.34476,0,0,1,.71875-2.62891,5.6213,5.6213,0,0,1,2.10156-2.125,6.12247,6.12247,0,0,1,3.20313-.82812,5.914,5.914,0,0,1,2.64843.62109,6.81726,6.81726,0,0,1,2.1836,1.707,9.10346,9.10346,0,0,0,.48437-1.72656h1.375v5.53516h-1.375q-1.46484-4.52345-5.09765-4.52344a3.10129,3.10129,0,0,0-2.11719.69531,2.26826,2.26826,0,0,0-.79687,1.793,2.35128,2.35128,0,0,0,.49609,1.5,4.30326,4.30326,0,0,0,1.3125,1.09375c.53906.30078,1.418.73828,2.62891,1.30078A37.39182,37.39182,0,0,1,62.293,66.375a7.44136,7.44136,0,0,1,2.09375,1.918A4.55358,4.55358,0,0,1,65.24609,71.08984Z"/><rect class="cls-4" x="14.51563" y="84.37804" width="71.74609" height="4"/></svg>