<svg id="Ebene_1" data-name="Ebene 1" xmlns="http://www.w3.org/2000/svg" viewBox="0 0 100 100"><defs><style>.cls-1{fill:#a6a99c;}.cls-2{fill:#7b7c75;}.cls-3{fill:#fff;}.cls-4{fill:#181716;}</style></defs><rect class="cls-1" x="14.00036" y="21.4" width="72" height="53.2"/><rect class="cls-2" x="14.00036" y="21.4" width="72" height="12"/><rect class="cls-3" x="14.00036" y="33.4" width="72" height="4"/><rect class="cls-3" x="18.00036" y="25.4" width="4" height="4"/><rect class="cls-3" x="26.00036" y="25.4" width="4" height="4"/><rect class="cls-3" x="34.00036" y="25.4" width="4" height="4"/><rect class="cls-4" x="14.00036" y="74.6" width="72" height="4"/><path class="cls-3" d="M35.70328,62.55614H32.32252l-2.31146-8.4757-2.31147,8.4757h-3.406L20.3165,49.7547h3.47982L26.034,58.70337l2.33671-8.94867h3.28073l2.33671,8.94867,2.23669-8.94867h3.47982Z"/><path class="cls-3" d="M55.69259,62.55614H52.31183l-2.31147-8.4757-2.31146,8.4757h-3.406L40.30581,49.7547h3.47982l2.23766,8.94867L48.36,49.7547h3.28073l2.33671,8.94867,2.23668-8.94867H59.694Z"/><path class="cls-3" d="M75.68287,62.55614H72.30211l-2.31147-8.4757-2.31146,8.4757h-3.406L60.29609,49.7547h3.47982l2.23766,8.94867,2.33671-8.94867H71.631l2.33671,8.94867L76.2044,49.7547h3.47983Z"/></svg>