<svg id="Ebene_1" data-name="Ebene 1" xmlns="http://www.w3.org/2000/svg" viewBox="0 0 100 100"><defs><style>.cls-1{fill:#b9b9b0;}.cls-2{fill:#fff;}.cls-3{fill:#a6a99c;}.cls-4{fill:#181716;}.cls-5{fill:#7b7c75;}</style></defs><polygon class="cls-1" points="87.32 30.175 18.496 30.179 18.496 76.959 34.309 76.959 34.309 91.777 49.128 76.959 87.32 76.959 87.32 30.175"/><rect class="cls-2" x="28.89593" y="61.31055" width="26.92907" height="5.2"/><rect class="cls-2" x="28.89593" y="50.31628" width="26.92907" height="5.2"/><rect class="cls-3" x="53.7642" y="26.52888" width="32.32345" height="5.64391" transform="translate(140.1252 0.65992) rotate(135)"/><path class="cls-4" d="M91.55176,17.45679l-5.741-5.741a1.58462,1.58462,0,0,0-2.24072,0l-4.21143,4.21143,7.98169,7.98169,4.21143-4.21143A1.58462,1.58462,0,0,0,91.55176,17.45679Z"/><path class="cls-5" d="M83.34937,19.91821l-22.85621,22.856L56.502,38.783c-.00805.01465-.029.029-.03393.0437L50.62451,50.094a1.94009,1.94009,0,0,0,2.54883,2.54834l11.26709-5.84326c.0144-.00488.0293-.02612.0437-.03393l22.8562-22.8562Z"/></svg>