<?xml version="1.0" encoding="iso-8859-1"?>
<!-- Generator: Adobe Illustrator 25.0.1, SVG Export Plug-In . SVG Version: 6.00 Build 0)  -->
<svg version="1.1" id="Ebene_1" xmlns="http://www.w3.org/2000/svg" xmlns:xlink="http://www.w3.org/1999/xlink" x="0px" y="0px"
	 viewBox="0 0 425.1969604 425.196991" style="enable-background:new 0 0 425.1969604 425.196991;" xml:space="preserve">
<g>
	<polyline style="fill:#E4002B;" points="425.1969604,425.196991 233.8580017,425.196991 191.3379822,425.196991 0,425.196991 0,0 
		191.3379822,0 212.5979919,21.2597961 233.8580017,0 425.1969604,0 425.1969604,425.196991 	"/>
	<polyline style="fill:#FFFFFF;" points="28.3463745,64.0623779 396.8499756,64.0623779 396.8499756,62.0623779 
		28.3463745,62.0623779 	"/>
	<g>
		<path style="fill:#FFFFFF;" d="M34.9082031,42.0620117v-5.78125h3.0205078v14.4428711h-3.0205078v-6.4414062h-3.4609375v6.4414062
			h-3.0205078V36.2807617h3.0205078v5.78125H34.9082031z"/>
		<path style="fill:#FFFFFF;" d="M40.6064453,43.5019531c0-3.8208008,0-7.4614258,4.980957-7.4614258
			c4.9814453,0,4.9814453,3.640625,4.9814453,7.4614258c0,3.7807617,0,7.4619141-4.9814453,7.4619141
			C40.6064453,50.9638672,40.6064453,47.2827148,40.6064453,43.5019531z M44.9472656,32.4199219v2.1601562h-2.2202148v-2.1601562
			H44.9472656z M47.5078125,43.5019531c0-3.7006836-0.2197266-5.3007812-1.9204102-5.3007812
			c-1.7001953,0-1.9204102,1.6000977-1.9204102,5.3007812c0,3.7011719,0.2202148,5.3012695,1.9204102,5.3012695
			C47.2880859,48.8032227,47.5078125,47.203125,47.5078125,43.5019531z M48.4882812,32.4199219v2.1601562h-2.2207031v-2.1601562
			H48.4882812z"/>
		<path style="fill:#FFFFFF;" d="M59.7480469,42.0620117v-5.78125h3.0205078v14.4428711h-3.0205078v-6.4414062h-3.4609375v6.4414062
			h-3.0205078V36.2807617h3.0205078v5.78125H59.7480469z"/>
		<path style="fill:#FFFFFF;" d="M65.5864258,50.7236328V36.2807617h7.8818359v2.2202148h-4.8613281v3.5610352h4.480957v2.2202148
			h-4.480957v4.2207031h5.0209961v2.2207031H65.5864258z"/>
		<path style="fill:#FFFFFF;" d="M78.746582,50.7236328h-3.0205078V36.2807617h5.5810547
			c2.0605469,0,3.3808594,1.3198242,3.3808594,3.7807617c0,1.840332-0.7202148,3.2207031-2.6806641,3.5405273v0.0400391
			c0.6601562,0.0800781,2.6206055,0.2402344,2.6206055,2.8408203c0,0.9199219,0.0600586,3.640625,0.340332,4.2407227h-2.9609375
			C81.6074219,49.8432617,81.6875,48.8632812,81.6875,47.9228516c0-1.7202148,0.1601562-3.1806641-2.1606445-3.1806641H78.746582
			V50.7236328z M78.746582,42.5219727h1.340332c1.2001953,0,1.5405273-1.2001953,1.5405273-2.1206055
			c0-1.3803711-0.5800781-1.9003906-1.5405273-1.9003906h-1.340332V42.5219727z"/>
		<path style="fill:#FFFFFF;" d="M87.105957,50.7236328V36.2807617h7.8818359v2.2202148h-4.8613281v3.5610352h4.480957v2.2202148
			h-4.480957v4.2207031h5.0209961v2.2207031H87.105957z"/>
		<path style="fill:#FFFFFF;" d="M101.8857422,50.7236328V36.2807617h7.5014648v2.2202148h-4.480957v3.7006836h4.28125v2.2207031
			h-4.28125v6.3012695H101.8857422z"/>
	</g>
	<g>
		<path style="fill:#FFFFFF;" d="M109.5390625,50.7236328l4.0009766-14.4428711h3.9804688l3.9208984,14.4428711h-3.1806641
			l-0.800293-3.2006836h-4.1206055l-0.8203125,3.2006836H109.5390625z M115.3603516,39.0610352h-0.0400391l-1.3803711,6.2412109
			h2.8803711L115.3603516,39.0610352z"/>
		<path style="fill:#FFFFFF;" d="M122.9189453,43.5019531c0-3.8208008,0-7.4614258,4.980957-7.4614258
			c3.0810547,0,4.3212891,1.7001953,4.2011719,4.8007812h-2.9604492c0-1.9204102-0.340332-2.6401367-1.2407227-2.6401367
			c-1.7001953,0-1.9204102,1.6000977-1.9204102,5.3007812c0,3.7011719,0.2202148,5.3012695,1.9204102,5.3012695
			c1.4003906,0,1.340332-1.800293,1.3803711-2.9404297h2.980957c0,3.8608398-1.5405273,5.1010742-4.3613281,5.1010742
			C122.9189453,50.9638672,122.9189453,47.2827148,122.9189453,43.5019531z"/>
		<path style="fill:#FFFFFF;" d="M140.9604492,42.0620117v-5.78125h3.0205078v14.4428711h-3.0205078v-6.4414062h-3.4609375
			v6.4414062h-3.0205078V36.2807617h3.0205078v5.78125H140.9604492z"/>
		<path style="fill:#FFFFFF;" d="M150.7197266,50.9638672c-3.7407227,0-4.440918-2.2006836-4.2807617-4.7011719h3.0205078
			c0,1.3803711,0.0600586,2.5405273,1.7202148,2.5405273c1.0205078,0,1.5205078-0.6601562,1.5205078-1.6401367
			c0-2.6005859-6.081543-2.7607422-6.081543-7.0615234c0-2.2607422,1.0805664-4.0610352,4.7612305-4.0610352
			c2.9404297,0,4.4008789,1.3203125,4.2006836,4.3408203h-2.9404297c0-1.0800781-0.1801758-2.1801758-1.4003906-2.1801758
			c-0.9799805,0-1.5600586,0.5400391-1.5600586,1.5400391c0,2.7407227,6.0810547,2.5004883,6.0810547,7.0415039
			C155.7607422,50.5234375,153.0200195,50.9638672,150.7197266,50.9638672z"/>
		<path style="fill:#FFFFFF;" d="M157.9785156,43.5019531c0-3.8208008,0-7.4614258,4.980957-7.4614258
			c3.0810547,0,4.3212891,1.7001953,4.2011719,4.8007812h-2.9604492c0-1.9204102-0.340332-2.6401367-1.2407227-2.6401367
			c-1.7001953,0-1.9204102,1.6000977-1.9204102,5.3007812c0,3.7011719,0.2202148,5.3012695,1.9204102,5.3012695
			c1.4003906,0,1.340332-1.800293,1.3803711-2.9404297h2.980957c0,3.8608398-1.5405273,5.1010742-4.3613281,5.1010742
			C157.9785156,50.9638672,157.9785156,47.2827148,157.9785156,43.5019531z"/>
		<path style="fill:#FFFFFF;" d="M176.0205078,42.0620117v-5.78125h3.0205078v14.4428711h-3.0205078v-6.4414062h-3.4609375
			v6.4414062h-3.0205078V36.2807617h3.0205078v5.78125H176.0205078z"/>
		<path style="fill:#FFFFFF;" d="M191.6210938,36.2807617v10.2421875c0,2.1601562-1.2202148,4.440918-4.9013672,4.440918
			c-3.3203125,0-4.9208984-1.7207031-4.9208984-4.440918V36.2807617h3.0205078v10.0419922
			c0,1.7802734,0.7602539,2.4804688,1.8603516,2.4804688c1.3203125,0,1.9208984-0.8803711,1.9208984-2.4804688V36.2807617
			H191.6210938z"/>
		<path style="fill:#FFFFFF;" d="M194.2983398,50.7236328V36.2807617h3.0205078v12.0424805h4.5209961v2.4003906H194.2983398z"/>
		<path style="fill:#FFFFFF;" d="M203.3583984,50.7236328V36.2807617h7.8818359v2.2202148h-4.8613281v3.5610352h4.480957v2.2202148
			h-4.480957v4.2207031h5.0209961v2.2207031H203.3583984z"/>
	</g>
	<g>
		<path style="fill:#FFFFFF;" d="M29.3154297,144.9189453v-36.1020508h11.4208984
			c4.8598633,0,6.512207,1.699707,7.8242188,3.7001953c1.2148438,1.9501953,1.409668,4.1000977,1.409668,4.800293
			c0,4.5-1.5068359,7.5004883-6.0263672,8.550293v0.25c5.0053711,0.6000977,7.1923828,3.7001953,7.1923828,8.6508789
			c0,9.2504883-6.5605469,10.1503906-10.5458984,10.1503906H29.3154297z M33.7866211,124.0175781h6.512207
			c3.4990234-0.0498047,5.2001953-2.25,5.2001953-5.7504883c0-3-1.6523438-5.4501953-5.3945312-5.4501953h-6.3178711V124.0175781z
			 M33.7866211,140.9189453h6.3178711c4.7626953,0,6.4633789-3.5004883,6.4633789-6.1503906
			c0-5.7504883-3.4501953-6.7504883-8.0185547-6.7504883h-4.7626953V140.9189453z"/>
		<path style="fill:#FFFFFF;" d="M63.5776367,144.9189453h-4.4711914v-36.1020508h4.4711914V144.9189453z"/>
		<path style="fill:#FFFFFF;" d="M71.8398438,131.7182617v-11.8510742c0-7.2001953,3.5966797-11.800293,11.0322266-11.800293
			s11.0322266,4.6000977,11.0322266,11.800293v11.8510742c0,10.0004883-3.5966797,13.9506836-11.0322266,13.9506836
			S71.8398438,141.71875,71.8398438,131.7182617z M89.3359375,131.9179688v-12.2006836
			c0-7.550293-5.0546875-7.800293-6.4638672-7.800293s-6.4638672,0.25-6.4638672,7.800293v12.2006836
			c0,7.9008789,2.2358398,9.9008789,6.4638672,9.9008789S89.3359375,139.8188477,89.3359375,131.9179688z"/>
		<path style="fill:#FFFFFF;" d="M105.859375,144.9189453h-4.1791992v-36.1020508h7.2412109l8.8447266,30.3017578h0.097168
			l8.9423828-30.3017578h7.387207v36.1020508h-4.4711914v-32.1020508h-0.097168l-9.8168945,32.1020508h-4.2285156
			l-9.6225586-32.1020508h-0.097168V144.9189453z"/>
		<path style="fill:#FFFFFF;" d="M142.0664062,144.9189453v-36.1020508h18.0791016v4h-13.6079102v11.6005859h12.6357422v4.0004883
			h-12.6357422v12.5009766h13.8994141v4H142.0664062z"/>
		<path style="fill:#FFFFFF;" d="M166.4145508,108.8168945h10.7890625c4.4711914,0,7.6787109,1.6499023,9.4282227,5.5
			c1.4091797,3.050293,1.5551758,10.2509766,1.5551758,11.4008789c0,7.7006836-0.6801758,12.1508789-2.1381836,14.5507812
			c-1.8955078,3.1000977-5.4433594,4.6503906-11.5668945,4.6503906h-8.0673828V108.8168945z M170.8857422,140.9189453h4.2280273
			c6.2207031,0,8.5048828-2.4003906,8.5048828-10.8007812v-7.3007812c0-7.300293-2.1870117-10.0004883-6.8525391-10.0004883
			h-5.8803711V140.9189453z"/>
		<path style="fill:#FFFFFF;" d="M201.0175781,144.9189453h-4.4711914v-36.1020508h4.4711914V144.9189453z"/>
		<path style="fill:#FFFFFF;" d="M228.1845703,113.4169922l-17.3984375,27.5019531h17.7871094v4h-21.9179688V139.71875
			l17.0097656-26.8017578v-0.1000977h-16.4267578v-4h20.9462891V113.4169922z"/>
		<path style="fill:#FFFFFF;" d="M238.7314453,144.9189453h-4.4716797v-36.1020508h4.4716797V144.9189453z"/>
		<path style="fill:#FFFFFF;" d="M271.4384766,108.8168945v36.1020508h-6.1240234l-13.8505859-31.3017578h-0.0966797v31.3017578
			h-3.9853516v-36.1020508h6.3173828l13.6572266,30.9018555h0.0966797v-30.9018555H271.4384766z"/>
		<path style="fill:#FFFFFF;" d="M284.5605469,144.9189453h-4.4716797v-36.1020508h4.4716797V144.9189453z"/>
		<path style="fill:#FFFFFF;" d="M296.4189453,134.168457v1.0498047c0,4.9003906,3.0136719,6.4506836,5.8808594,6.4506836
			c3.5478516,0,6.2695312-1.550293,6.2695312-5.8505859c0-8.0004883-15.7460938-7.1005859-15.7460938-17.9511719
			c0-6.4003906,4.421875-9.800293,10.3027344-9.800293c6.4150391,0,10.0117188,3.2001953,9.7197266,10.550293h-4.6650391
			c0.0478516-3.9501953-1.1669922-6.550293-5.3945312-6.550293c-2.6728516,0-5.3945312,1.3999023-5.3945312,5.300293
			c0,7.9506836,15.7460938,6.800293,15.7460938,18.2509766c0,7.6005859-5.1035156,10.0507812-10.8867188,10.0507812
			c-10.3515625,0.1000977-10.3515625-8.050293-10.2539062-11.5004883H296.4189453z"/>
		<path style="fill:#FFFFFF;" d="M335.3955078,118.7675781c0.0488281-2.050293-0.0966797-4.1005859-1.0205078-5.2504883
			c-0.9228516-1.1499023-3.0126953-1.550293-3.9365234-1.550293c-3.6933594,0-5.1513672,2.300293-5.296875,2.800293
			c-0.1455078,0.3999023-1.0205078,1.300293-1.0205078,7.5004883v9.6503906c0,8.8505859,2.8183594,9.9008789,6.2695312,9.9008789
			c1.3603516,0,5.4912109-0.5,5.5400391-7.5507812h4.6171875c0.1943359,11.4008789-7.6308594,11.4008789-9.9150391,11.4008789
			c-4.3730469,0-11.0800781-0.2998047-11.0800781-14.3007812v-10.2006836c0-10.2006836,4.3740234-13.1005859,11.2753906-13.1005859
			c6.9492188,0,9.6220703,3.7001953,9.1845703,10.7006836H335.3955078z"/>
		<path style="fill:#FFFFFF;" d="M347.2060547,144.9189453v-36.1020508h4.4707031v15.6005859h12.2958984v-15.6005859h4.4707031
			v36.1020508h-4.4707031v-16.5009766h-12.2958984v16.5009766H347.2060547z"/>
		<path style="fill:#FFFFFF;" d="M376.5595703,144.9189453v-36.1020508h18.0791016v4h-13.6083984v11.6005859h12.6367188v4.0004883
			h-12.6367188v12.5009766h13.8994141v4H376.5595703z"/>
	</g>
	<g>
		<path style="fill:#FFFFFF;" d="M36.7998047,153.8168945h5.6860352l11.4208984,36.1020508h-5.0058594l-2.5273438-8.6005859
			h-13.559082l-2.6245117,8.6005859h-4.5195312L36.7998047,153.8168945z M39.5209961,158.0668945h-0.097168l-5.4916992,19.2514648
			h11.2265625L39.5209961,158.0668945z"/>
		<path style="fill:#FFFFFF;" d="M82.8720703,153.8168945v36.1020508h-6.1235352l-13.8510742-31.3017578h-0.097168v31.3017578
			h-3.9848633v-36.1020508h6.3178711l13.65625,30.9018555h0.097168v-30.9018555H82.8720703z"/>
		<path style="fill:#FFFFFF;" d="M98.909668,153.8168945h5.6860352l11.4208984,36.1020508h-5.0058594l-2.5273438-8.6005859
			h-13.559082l-2.6245117,8.6005859h-4.5195312L98.909668,153.8168945z M101.6308594,158.0668945h-0.097168l-5.4916992,19.2514648
			h11.2265625L101.6308594,158.0668945z"/>
		<path style="fill:#FFFFFF;" d="M120.6821289,189.9189453v-36.1020508h4.4711914v32.1020508h12.8789062v4H120.6821289z"/>
	</g>
	<g>
		<path style="fill:#FFFFFF;" d="M154.7602539,153.8168945h4.5200195l-9.5742188,22.3510742v13.7509766h-4.4711914v-13.7509766
			l-9.4282227-22.3510742H140.8125l6.8525391,17.4506836L154.7602539,153.8168945z"/>
		<path style="fill:#FFFFFF;" d="M183.3369141,153.8168945v4h-9.2338867v32.1020508h-4.4711914v-32.1020508h-9.2338867v-4
			H183.3369141z"/>
		<path style="fill:#FFFFFF;" d="M193.0087891,189.9189453h-4.4711914v-36.1020508h4.4711914V189.9189453z"/>
		<path style="fill:#FFFFFF;" d="M201.465332,189.9189453v-36.1020508h4.4711914v15.8505859h0.1455078l12.2470703-15.8505859
			h5.0546875l-12.7333984,16.3007812l13.4619141,19.8012695h-5.734375l-12.2958984-18.8510742h-0.1455078v18.8510742H201.465332z"/>
	</g>
	<polygon style="fill:#FFFFFF;" points="386.2749939,337.0089722 384.4099731,347.5849915 394.9859619,347.5849915 
		396.8499756,337.0089722 386.2749939,337.0089722 	"/>
	<polygon style="fill:#FFFFFF;" points="378.1159973,383.2780151 388.6919861,383.2780151 394.2859802,351.5509949 
		383.7109985,351.5509949 378.1159973,383.2780151 	"/>
	<path style="fill:#FFFFFF;" d="M370.4110107,337.0089722l-2.5640564,14.5420227h-7.93396
		c-4.36203,0.0009766-8.5589905,3.5700073-9.3280029,7.9309692l0,0l-1.375,7.7980042l-1.4220276,8.06604l0,0
		c-0.7689819,4.3619995,2.1700439,7.9320068,6.5330505,7.9320068l0,0h18.5069885l8.1589966-46.269043H370.4110107
		L370.4110107,337.0089722z M362.9519958,379.3120117c-0.1260071,0.7119751-0.8110046,1.321991-1.5230103,1.321991h-2.7080078
		c-0.7120056,0-1.1820068-0.6100159-1.0569763-1.321991l4.1959839-23.7950134
		c0.1259766-0.7130432,0.8109741-1.321991,1.5229797-1.321991h2.7080383c0.7120056,0,1.1820068,0.6089478,1.0570068,1.321991
		L362.9519958,379.3120117L362.9519958,379.3120117z"/>
	<path style="fill:#FFFFFF;" d="M307.0389709,351.5509949h-34.3729858l-5.5939941,31.7270203h10.5749817l4.8950195-27.7610168
		c0.1260071-0.7130432,0.8110046-1.321991,1.5230103-1.321991h2.7079773c0.7130127,0,1.1830139,0.6069946,1.0580139,1.3190002
		l-4.8960266,27.7640076h10.5760193l4.894989-27.7610168c0.1260071-0.7130432,0.8099976-1.321991,1.5230103-1.321991h2.7080078
		c0.7120056,0,1.1820068,0.6089478,1.0569763,1.321991l-0.605957,3.4369812l-1.177002,6.6730042l-0.3619995,2.0510254
		l-2.75,15.6000061h10.5749512l4.1960144-23.796051l0,0C314.3389893,355.1210022,311.3999634,351.5519714,307.0389709,351.5509949
		L307.0389709,351.5509949z"/>
	<path style="fill:#FFFFFF;" d="M338.7659912,351.5509949h-10.5799866c-4.36203,0.0009766-8.5589905,3.5700073-9.3280029,7.9309692
		l-2.7970276,15.8640442c-0.7690125,4.3619995,2.1700134,7.9320068,6.53302,7.9320068l0,0h10.5779724
		c4.3570251-0.0020142,8.5500183-3.5630188,9.3250427-7.9190063l0,0l0,0l0.4689636-2.6570129h-10.5749817l-1.1660156,6.6100159
		c-0.1259766,0.7119751-0.8109741,1.321991-1.5229797,1.321991h-2.7080383c-0.7119751,0-1.1819458-0.6100159-1.0569763-1.321991
		l1.638031-9.2870178c0.1259766-0.7120056,0.8049927-1.2890015,1.5169983-1.2890015h14.572998l1.6319885-9.2540283l0,0
		C346.0660095,355.1210022,343.1269836,351.5519714,338.7659912,351.5509949L338.7659912,351.5509949z M333.7829895,364.8029785
		c-0.1259766,0.7120056-0.8049927,1.2890015-1.5170288,1.2890015h-2.7079773c-0.7119751,0-1.1879883-0.5769958-1.0620117-1.2890015
		l1.6370239-9.2870178c0.1259766-0.7120056,0.8099976-1.3209534,1.5230103-1.321991h2.7080078
		c0.7119751,0.0010376,1.1819763,0.6099854,1.0569763,1.321991L333.7829895,364.8029785L333.7829895,364.8029785z"/>
	<polygon style="fill:#FFFFFF;" points="264.7379761,351.5509949 254.1589661,351.5509949 252.2939911,362.1279907 
		262.8720093,362.1279907 264.7379761,351.5509949 	"/>
	<path style="fill:#FFFFFF;" d="M250.4279785,372.70401l-1.864975,10.5769958h3.96698l-0.2799988,1.5870056
		c0,0-0.0609894,0.3489685-0.0929871,0.5279541l0,0c-0.3790131,2.1500244-1.2740021,4.1450195-2.5940094,5.809021
		l0.2460175,0.0090027c4.2269745,0,8.2999725-3.3500061,9.2509918-7.526001
		c0.0289612-0.1350098,0.0579834-0.269989,0.0820007-0.4060059v-0.0009766l1.8649597-10.5769958H250.4279785L250.4279785,372.70401z
		"/>
</g>
</svg>
