<?xml version="1.0" encoding="iso-8859-1"?>
<!-- Generator: Adobe Illustrator 25.0.1, SVG Export Plug-In . SVG Version: 6.00 Build 0)  -->
<svg version="1.1" id="Ebene_1" xmlns="http://www.w3.org/2000/svg" xmlns:xlink="http://www.w3.org/1999/xlink" x="0px" y="0px"
	 viewBox="0 0 425.1969604 425.196991" style="enable-background:new 0 0 425.1969604 425.196991;" xml:space="preserve">
<g>
	<polyline style="fill:#FDC300;" points="425.1969604,425.196991 233.8580017,425.196991 191.3379822,425.196991 0,425.196991 0,0 
		191.3379822,0 212.5979919,21.2597961 233.8580017,0 425.1969604,0 425.1969604,425.196991 	"/>
	<polyline style="fill:#FFFFFF;" points="28.3463745,64.0623779 396.8499756,64.0623779 396.8499756,62.0623779 
		28.3463745,62.0623779 	"/>
	<g>
		<path style="fill:#FFFFFF;" d="M28.3266602,50.7236328V36.2807617h7.8818359v2.2202148H31.347168v3.5610352h4.480957v2.2202148
			h-4.480957v4.2207031h5.0209961v2.2207031H28.3266602z"/>
		<path style="fill:#FFFFFF;" d="M38.3867188,43.5019531c0-3.8208008,0-7.4614258,4.980957-7.4614258
			c3.0810547,0,4.3212891,1.7001953,4.2011719,4.8007812h-2.9604492c0-1.9204102-0.340332-2.6401367-1.2407227-2.6401367
			c-1.7001953,0-1.9204102,1.6000977-1.9204102,5.3007812c0,3.7011719,0.2202148,5.3012695,1.9204102,5.3012695
			c1.4003906,0,1.340332-1.800293,1.3803711-2.9404297h2.980957c0,3.8608398-1.5405273,5.1010742-4.3613281,5.1010742
			C38.3867188,50.9638672,38.3867188,47.2827148,38.3867188,43.5019531z"/>
		<path style="fill:#FFFFFF;" d="M49.706543,43.5019531c0-3.8208008,0-7.4614258,4.980957-7.4614258
			c4.9814453,0,4.9814453,3.640625,4.9814453,7.4614258c0,3.7807617,0,7.4619141-4.9814453,7.4619141
			C49.706543,50.9638672,49.706543,47.2827148,49.706543,43.5019531z M56.6079102,43.5019531
			c0-3.7006836-0.2197266-5.3007812-1.9204102-5.3007812c-1.7001953,0-1.9204102,1.6000977-1.9204102,5.3007812
			c0,3.7011719,0.2202148,5.3012695,1.9204102,5.3012695C56.3881836,48.8032227,56.6079102,47.203125,56.6079102,43.5019531z"/>
		<path style="fill:#FFFFFF;" d="M62.2866211,50.7236328V36.2807617h3.0205078v12.0424805h4.5209961v2.4003906H62.2866211z"/>
		<path style="fill:#FFFFFF;" d="M71.3461914,50.7236328V36.2807617h7.8818359v2.2202148h-4.8613281v3.5610352h4.480957v2.2202148
			h-4.480957v4.2207031h5.0209961v2.2207031H71.3461914z"/>
		<path style="fill:#FFFFFF;" d="M90.1069336,50.9638672c-3.7407227,0-4.440918-2.2006836-4.2807617-4.7011719h3.0205078
			c0,1.3803711,0.0600586,2.5405273,1.7202148,2.5405273c1.0205078,0,1.5205078-0.6601562,1.5205078-1.6401367
			c0-2.6005859-6.081543-2.7607422-6.081543-7.0615234c0-2.2607422,1.0805664-4.0610352,4.7612305-4.0610352
			c2.9404297,0,4.4008789,1.3203125,4.2006836,4.3408203h-2.9404297c0-1.0800781-0.1801758-2.1801758-1.4003906-2.1801758
			c-0.9799805,0-1.5600586,0.5400391-1.5600586,1.5400391c0,2.7407227,6.0810547,2.5004883,6.0810547,7.0415039
			C95.1479492,50.5234375,92.4072266,50.9638672,90.1069336,50.9638672z"/>
		<path style="fill:#FFFFFF;" d="M107.2680664,36.2807617v10.2421875c0,2.1601562-1.2202148,4.440918-4.9013672,4.440918
			c-3.3203125,0-4.9208984-1.7207031-4.9208984-4.440918V36.2807617h3.0205078v10.0419922
			c0,1.7802734,0.7602539,2.4804688,1.8608398,2.4804688c1.3198242,0,1.9199219-0.8803711,1.9199219-2.4804688V36.2807617
			H107.2680664z"/>
		<path style="fill:#FFFFFF;" d="M109.9458008,36.2807617h5.440918c2.7607422,0,3.8408203,1.6801758,3.8408203,4.3208008
			c0,1.6401367-0.4799805,4.2407227-4.0205078,4.2407227h-2.2407227v5.8813477h-3.0205078V36.2807617z M112.9663086,42.6220703
			h1.6806641c0.8999023,0,1.5200195-0.9804688,1.5200195-1.9404297c0-1.1801758-0.3198242-2.1806641-1.6801758-2.1806641h-1.5205078
			V42.6220703z"/>
		<path style="fill:#FFFFFF;" d="M121.2456055,50.7236328V36.2807617h7.8818359v2.2202148h-4.8613281v3.5610352h4.480957v2.2202148
			h-4.480957v4.2207031h5.0209961v2.2207031H121.2456055z M127.7670898,31.9394531l-3.2006836,2.8608398h-1.300293
			l1.800293-2.8608398H127.7670898z"/>
		<path style="fill:#FFFFFF;" d="M134.40625,50.7236328h-3.0205078V36.2807617h5.5810547
			c2.0605469,0,3.3808594,1.3198242,3.3808594,3.7807617c0,1.840332-0.7202148,3.2207031-2.6806641,3.5405273v0.0400391
			c0.6601562,0.0800781,2.6206055,0.2402344,2.6206055,2.8408203c0,0.9199219,0.0600586,3.640625,0.340332,4.2407227h-2.9609375
			c-0.3999023-0.8803711-0.3198242-1.8603516-0.3198242-2.8007812c0-1.7202148,0.1601562-3.1806641-2.1606445-3.1806641H134.40625
			V50.7236328z M134.40625,42.5219727h1.340332c1.2001953,0,1.5405273-1.2001953,1.5405273-2.1206055
			c0-1.3803711-0.5800781-1.9003906-1.5405273-1.9003906h-1.340332V42.5219727z"/>
		<path style="fill:#FFFFFF;" d="M142.765625,50.7236328V36.2807617h3.0205078v14.4428711H142.765625z"/>
		<path style="fill:#FFFFFF;" d="M148.5258789,50.7236328V36.2807617h7.8818359v2.2202148h-4.8613281v3.5610352h4.480957v2.2202148
			h-4.480957v4.2207031h5.0209961v2.2207031H148.5258789z"/>
		<path style="fill:#FFFFFF;" d="M168.487793,36.2807617v10.2421875c0,2.1601562-1.2202148,4.440918-4.9013672,4.440918
			c-3.3203125,0-4.9208984-1.7207031-4.9208984-4.440918V36.2807617h3.0205078v10.0419922
			c0,1.7802734,0.7602539,2.4804688,1.8608398,2.4804688c1.3198242,0,1.9199219-0.8803711,1.9199219-2.4804688V36.2807617
			H168.487793z"/>
		<path style="fill:#FFFFFF;" d="M174.105957,50.7236328h-3.0205078V36.2807617h5.5810547
			c2.0605469,0,3.3808594,1.3198242,3.3808594,3.7807617c0,1.840332-0.7202148,3.2207031-2.6806641,3.5405273v0.0400391
			c0.6601562,0.0800781,2.6206055,0.2402344,2.6206055,2.8408203c0,0.9199219,0.0600586,3.640625,0.340332,4.2407227h-2.9609375
			c-0.3999023-0.8803711-0.3198242-1.8603516-0.3198242-2.8007812c0-1.7202148,0.1601562-3.1806641-2.1606445-3.1806641h-0.7802734
			V50.7236328z M174.105957,42.5219727h1.340332c1.2001953,0,1.5405273-1.2001953,1.5405273-2.1206055
			c0-1.3803711-0.5800781-1.9003906-1.5405273-1.9003906h-1.340332V42.5219727z"/>
		<path style="fill:#FFFFFF;" d="M182.465332,50.7236328V36.2807617h7.8818359v2.2202148h-4.8613281v3.5610352h4.480957v2.2202148
			h-4.480957v4.2207031h5.0209961v2.2207031H182.465332z"/>
	</g>
	<g>
		<path style="fill:#FFFFFF;" d="M32.5498047,134.168457v1.0498047c0,4.9003906,3.1000977,6.4506836,6.050293,6.4506836
			c3.6503906,0,6.4501953-1.550293,6.4501953-5.8505859c0-8.0004883-16.2006836-7.1005859-16.2006836-17.9511719
			c0-6.4003906,4.550293-9.800293,10.6005859-9.800293c6.6000977,0,10.3007812,3.2001953,10.0004883,10.550293h-4.800293
			c0.0498047-3.9501953-1.2001953-6.550293-5.550293-6.550293c-2.75,0-5.550293,1.3999023-5.550293,5.300293
			c0,7.9506836,16.2011719,6.800293,16.2011719,18.2509766c0,7.6005859-5.2504883,10.0507812-11.2011719,10.0507812
			c-10.6503906,0.1000977-10.6503906-8.050293-10.550293-11.5004883H32.5498047z"/>
		<path style="fill:#FFFFFF;" d="M56.6494141,131.7182617v-11.8510742c0-7.2001953,3.7001953-11.800293,11.3505859-11.800293
			s11.3505859,4.6000977,11.3505859,11.800293v11.8510742c0,10.0004883-3.7001953,13.9506836-11.3505859,13.9506836
			S56.6494141,141.71875,56.6494141,131.7182617z M74.6503906,131.9179688v-12.2006836
			c0-7.550293-5.2001953-7.800293-6.6503906-7.800293s-6.6503906,0.25-6.6503906,7.800293v12.2006836
			c0,7.9008789,2.300293,9.9008789,6.6503906,9.9008789S74.6503906,139.8188477,74.6503906,131.9179688z"/>
		<path style="fill:#FFFFFF;" d="M92.5493164,144.9189453h-4.6000977v-36.1020508h4.6000977V144.9189453z"/>
		<path style="fill:#FFFFFF;" d="M126.2504883,108.8168945v36.1020508h-6.300293l-14.2509766-31.3017578h-0.1000977v31.3017578
			h-4.1000977v-36.1020508h6.5004883L122.050293,139.71875h0.1000977v-30.9018555H126.2504883z"/>
		<path style="fill:#FFFFFF;" d="M138.1489258,134.168457v1.0498047c0,4.9003906,3.1000977,6.4506836,6.050293,6.4506836
			c3.6503906,0,6.4501953-1.550293,6.4501953-5.8505859c0-8.0004883-16.2006836-7.1005859-16.2006836-17.9511719
			c0-6.4003906,4.550293-9.800293,10.6005859-9.800293c6.6000977,0,10.300293,3.2001953,10.0004883,10.550293h-4.800293
			c0.0498047-3.9501953-1.2001953-6.550293-5.550293-6.550293c-2.75,0-5.550293,1.3999023-5.550293,5.300293
			c0,7.9506836,16.2006836,6.800293,16.2006836,18.2509766c0,7.6005859-5.25,10.0507812-11.2001953,10.0507812
			c-10.6508789,0.1000977-10.6508789-8.050293-10.5507812-11.5004883H138.1489258z"/>
	</g>
	<g>
		<path style="fill:#FFFFFF;" d="M37.1499023,153.8168945h5.8505859l11.7504883,36.1020508h-5.1503906l-2.6000977-8.6005859
			H33.0498047l-2.7001953,8.6005859h-4.6503906L37.1499023,153.8168945z M39.9501953,158.0668945h-0.1000977l-5.6503906,19.2514648
			h11.5507812L39.9501953,158.0668945z"/>
		<path style="fill:#FFFFFF;" d="M63.8994141,189.9189453h-4.300293v-36.1020508h7.4506836l9.1005859,30.3017578h0.1000977
			l9.2001953-30.3017578h7.6005859v36.1020508h-4.6000977v-32.1020508h-0.1000977l-10.1005859,32.1020508h-4.3500977
			l-9.9008789-32.1020508h-0.1000977V189.9189453z"/>
		<path style="fill:#FFFFFF;" d="M101.6489258,189.9189453v-36.1020508h11.7504883
			c5.0004883,0,6.7001953,1.699707,8.050293,3.7001953c1.2504883,1.9501953,1.4501953,4.1000977,1.4501953,4.800293
			c0,4.5-1.5498047,7.5004883-6.2001953,8.550293v0.25c5.1503906,0.6000977,7.4003906,3.7001953,7.4003906,8.6508789
			c0,9.2504883-6.7504883,10.1503906-10.8505859,10.1503906H101.6489258z M106.2490234,169.0175781h6.7001953
			c3.6005859-0.0498047,5.3505859-2.25,5.3505859-5.7504883c0-3-1.7001953-5.4501953-5.550293-5.4501953h-6.5004883V169.0175781z
			 M106.2490234,185.9189453h6.5004883c4.9003906,0,6.6503906-3.5004883,6.6503906-6.1503906
			c0-5.7504883-3.550293-6.7504883-8.2504883-6.7504883h-4.9003906V185.9189453z"/>
		<path style="fill:#FFFFFF;" d="M131.5986328,153.8168945h4.6000977v23.1010742
			c0,7.9008789,2.4003906,9.9008789,6.7504883,9.9008789s6.7504883-2,6.7504883-9.9008789v-23.1010742h4.6000977v22.9013672
			c0,10.0004883-3.7001953,13.9506836-11.3505859,13.9506836s-11.3505859-3.9501953-11.3505859-13.9506836V153.8168945z"/>
		<path style="fill:#FFFFFF;" d="M162.2978516,189.9189453v-36.1020508h4.6000977v32.1020508h13.2509766v4H162.2978516z"/>
		<path style="fill:#FFFFFF;" d="M192.6474609,153.8168945h5.8505859l11.7504883,36.1020508h-5.1503906l-2.6000977-8.6005859
			h-13.9506836l-2.7001953,8.6005859h-4.6503906L192.6474609,153.8168945z M195.4477539,158.0668945h-0.1000977
			l-5.6503906,19.2514648h11.5507812L195.4477539,158.0668945z"/>
		<path style="fill:#FFFFFF;" d="M240.0488281,153.8168945v36.1020508h-6.3007812l-14.2509766-31.3017578h-0.0996094v31.3017578
			h-4.1005859v-36.1020508h6.5l14.0507812,30.9018555h0.1005859v-30.9018555H240.0488281z"/>
		<path style="fill:#FFFFFF;" d="M264.296875,163.7675781c0.0498047-2.050293-0.0996094-4.1005859-1.0498047-5.2504883
			s-3.1005859-1.550293-4.0507812-1.550293c-3.7998047,0-5.2998047,2.300293-5.4501953,2.800293
			c-0.1494141,0.3999023-1.0498047,1.300293-1.0498047,7.5004883v9.6503906c0,8.8505859,2.9003906,9.9008789,6.4501953,9.9008789
			c1.4003906,0,5.6503906-0.5,5.7001953-7.5507812h4.7509766c0.1992188,11.4008789-7.8505859,11.4008789-10.2011719,11.4008789
			c-4.5,0-11.4003906-0.2998047-11.4003906-14.3007812v-10.2006836c0-10.2006836,4.5-13.1005859,11.6005859-13.1005859
			c7.1503906,0,9.9003906,3.7001953,9.4501953,10.7006836H264.296875z"/>
		<path style="fill:#FFFFFF;" d="M281.3974609,189.9189453h-4.6005859v-36.1020508h4.6005859V189.9189453z"/>
		<path style="fill:#FFFFFF;" d="M290.0957031,189.9189453v-36.1020508h18.6015625v4h-14.0009766v11.6005859h13.0009766v4.0004883
			h-13.0009766v12.5009766h14.3007812v4H290.0957031z"/>
		<path style="fill:#FFFFFF;" d="M319.5966797,173.3178711v16.6010742h-4.6005859v-36.1020508h12.4511719
			c6.4003906,0,8.6503906,4.5,8.6503906,9.0004883c0,4.25-2.3505859,7.5004883-6.6005859,8.2504883v0.1000977
			c4.1503906,0.6499023,5.6503906,2.0498047,5.9003906,9.300293c0.0498047,1.550293,0.5498047,7.2006836,1.25,9.4506836h-4.7998047
			c-1.3007812-2.5-1.0009766-7.2001953-1.4003906-12.0009766c-0.3505859-4.3999023-3.9003906-4.6000977-5.4501953-4.6000977
			H319.5966797z M319.5966797,169.3178711h6.9003906c3.2998047,0,4.9003906-2.8505859,4.9003906-6.0004883
			c0-2.6000977-1.3007812-5.5004883-4.8505859-5.5004883h-6.9501953V169.3178711z"/>
		<path style="fill:#FFFFFF;" d="M346.4462891,179.168457v1.0498047c0,4.9003906,3.0996094,6.4506836,6.0498047,6.4506836
			c3.6503906,0,6.4511719-1.550293,6.4511719-5.8505859c0-8.0004883-16.2011719-7.1005859-16.2011719-17.9511719
			c0-6.4003906,4.5498047-9.800293,10.6005859-9.800293c6.6005859,0,10.3007812,3.2001953,10.0009766,10.550293h-4.8007812
			c0.0498047-3.9501953-1.2001953-6.550293-5.5507812-6.550293c-2.75,0-5.5498047,1.3999023-5.5498047,5.300293
			c0,7.9506836,16.2011719,6.800293,16.2011719,18.2509766c0,7.6005859-5.2509766,10.0507812-11.2011719,10.0507812
			c-10.6503906,0.1000977-10.6503906-8.050293-10.5507812-11.5004883H346.4462891z"/>
	</g>
	<polygon style="fill:#FFFFFF;" points="386.2749939,337.0089722 384.4099731,347.5849915 394.9859619,347.5849915 
		396.8499756,337.0089722 386.2749939,337.0089722 	"/>
	<polygon style="fill:#FFFFFF;" points="378.1159973,383.2780151 388.6919861,383.2780151 394.2859802,351.5509949 
		383.7109985,351.5509949 378.1159973,383.2780151 	"/>
	<path style="fill:#FFFFFF;" d="M370.4110107,337.0089722l-2.5640564,14.5420227h-7.93396
		c-4.36203,0.0009766-8.5589905,3.5700073-9.3280029,7.9309692l0,0l-1.375,7.7980042l-1.4220276,8.06604l0,0
		c-0.7689819,4.3619995,2.1700439,7.9320068,6.5330505,7.9320068l0,0h18.5069885l8.1589966-46.269043H370.4110107
		L370.4110107,337.0089722z M362.9519958,379.3120117c-0.1260071,0.7119751-0.8110046,1.321991-1.5230103,1.321991h-2.7080078
		c-0.7120056,0-1.1820068-0.6100159-1.0569763-1.321991l4.1959839-23.7950134
		c0.1259766-0.7130432,0.8109741-1.321991,1.5229797-1.321991h2.7080383c0.7120056,0,1.1820068,0.6089478,1.0570068,1.321991
		L362.9519958,379.3120117L362.9519958,379.3120117z"/>
	<path style="fill:#FFFFFF;" d="M307.0389709,351.5509949h-34.3729858l-5.5939941,31.7270203h10.5749817l4.8950195-27.7610168
		c0.1260071-0.7130432,0.8110046-1.321991,1.5230103-1.321991h2.7079773c0.7130127,0,1.1830139,0.6069946,1.0580139,1.3190002
		l-4.8960266,27.7640076h10.5760193l4.894989-27.7610168c0.1260071-0.7130432,0.8099976-1.321991,1.5230103-1.321991h2.7080078
		c0.7120056,0,1.1820068,0.6089478,1.0569763,1.321991l-0.605957,3.4369812l-1.177002,6.6730042l-0.3619995,2.0510254
		l-2.75,15.6000061h10.5749512l4.1960144-23.796051l0,0C314.3389893,355.1210022,311.3999634,351.5519714,307.0389709,351.5509949
		L307.0389709,351.5509949z"/>
	<path style="fill:#FFFFFF;" d="M338.7659912,351.5509949h-10.5799866c-4.36203,0.0009766-8.5589905,3.5700073-9.3280029,7.9309692
		l-2.7970276,15.8640442c-0.7690125,4.3619995,2.1700134,7.9320068,6.53302,7.9320068l0,0h10.5779724
		c4.3570251-0.0020142,8.5500183-3.5630188,9.3250427-7.9190063l0,0l0,0l0.4689636-2.6570129h-10.5749817l-1.1660156,6.6100159
		c-0.1259766,0.7119751-0.8109741,1.321991-1.5229797,1.321991h-2.7080383c-0.7119751,0-1.1819458-0.6100159-1.0569763-1.321991
		l1.638031-9.2870178c0.1259766-0.7120056,0.8049927-1.2890015,1.5169983-1.2890015h14.572998l1.6319885-9.2540283l0,0
		C346.0660095,355.1210022,343.1269836,351.5519714,338.7659912,351.5509949L338.7659912,351.5509949z M333.7829895,364.8029785
		c-0.1259766,0.7120056-0.8049927,1.2890015-1.5170288,1.2890015h-2.7079773c-0.7119751,0-1.1879883-0.5769958-1.0620117-1.2890015
		l1.6370239-9.2870178c0.1259766-0.7120056,0.8099976-1.3209534,1.5230103-1.321991h2.7080078
		c0.7119751,0.0010376,1.1819763,0.6099854,1.0569763,1.321991L333.7829895,364.8029785L333.7829895,364.8029785z"/>
	<polygon style="fill:#FFFFFF;" points="264.7379761,351.5509949 254.1589661,351.5509949 252.2939911,362.1279907 
		262.8720093,362.1279907 264.7379761,351.5509949 	"/>
	<path style="fill:#FFFFFF;" d="M250.4279785,372.70401l-1.864975,10.5769958h3.96698l-0.2799988,1.5870056
		c0,0-0.0609894,0.3489685-0.0929871,0.5279541l0,0c-0.3790131,2.1500244-1.2740021,4.1450195-2.5940094,5.809021
		l0.2460175,0.0090027c4.2269745,0,8.2999725-3.3500061,9.2509918-7.526001
		c0.0289612-0.1350098,0.0579834-0.269989,0.0820007-0.4060059v-0.0009766l1.8649597-10.5769958H250.4279785L250.4279785,372.70401z
		"/>
</g>
</svg>
