<?xml version="1.0" encoding="iso-8859-1"?>
<!-- Generator: Adobe Illustrator 25.0.1, SVG Export Plug-In . SVG Version: 6.00 Build 0)  -->
<svg version="1.1" id="Ebene_1" xmlns="http://www.w3.org/2000/svg" xmlns:xlink="http://www.w3.org/1999/xlink" x="0px" y="0px"
	 viewBox="0 0 425.1969604 425.196991" style="enable-background:new 0 0 425.1969604 425.196991;" xml:space="preserve">
<g>
	<polyline style="fill:#EF7C01;" points="425.1969604,425.196991 233.8580017,425.196991 191.3379822,425.196991 0,425.196991 0,0 
		191.3379822,0 212.5979919,21.2597961 233.8580017,0 425.1969604,0 425.1969604,425.196991 	"/>
	<polyline style="fill:#FFFFFF;" points="28.3463745,64.0623779 396.8499756,64.0623779 396.8499756,62.0623779 
		28.3463745,62.0623779 	"/>
	<g>
		<path style="fill:#FFFFFF;" d="M34.9082031,42.0620117v-5.78125h3.0205078v14.4428711h-3.0205078v-6.4414062h-3.4609375v6.4414062
			h-3.0205078V36.2807617h3.0205078v5.78125H34.9082031z"/>
		<path style="fill:#FFFFFF;" d="M40.6064453,43.5019531c0-3.8208008,0-7.4614258,4.980957-7.4614258
			c4.9814453,0,4.9814453,3.640625,4.9814453,7.4614258c0,3.7807617,0,7.4619141-4.9814453,7.4619141
			C40.6064453,50.9638672,40.6064453,47.2827148,40.6064453,43.5019531z M44.9472656,32.4199219v2.1601562h-2.2202148v-2.1601562
			H44.9472656z M47.5078125,43.5019531c0-3.7006836-0.2197266-5.3007812-1.9204102-5.3007812
			c-1.7001953,0-1.9204102,1.6000977-1.9204102,5.3007812c0,3.7011719,0.2202148,5.3012695,1.9204102,5.3012695
			C47.2880859,48.8032227,47.5078125,47.203125,47.5078125,43.5019531z M48.4882812,32.4199219v2.1601562h-2.2207031v-2.1601562
			H48.4882812z"/>
		<path style="fill:#FFFFFF;" d="M59.7480469,42.0620117v-5.78125h3.0205078v14.4428711h-3.0205078v-6.4414062h-3.4609375v6.4414062
			h-3.0205078V36.2807617h3.0205078v5.78125H59.7480469z"/>
		<path style="fill:#FFFFFF;" d="M65.5864258,50.7236328V36.2807617h7.8818359v2.2202148h-4.8613281v3.5610352h4.480957v2.2202148
			h-4.480957v4.2207031h5.0209961v2.2207031H65.5864258z"/>
		<path style="fill:#FFFFFF;" d="M78.746582,50.7236328h-3.0205078V36.2807617h5.5810547
			c2.0605469,0,3.3808594,1.3198242,3.3808594,3.7807617c0,1.840332-0.7202148,3.2207031-2.6806641,3.5405273v0.0400391
			c0.6601562,0.0800781,2.6206055,0.2402344,2.6206055,2.8408203c0,0.9199219,0.0600586,3.640625,0.340332,4.2407227h-2.9609375
			C81.6074219,49.8432617,81.6875,48.8632812,81.6875,47.9228516c0-1.7202148,0.1601562-3.1806641-2.1606445-3.1806641H78.746582
			V50.7236328z M78.746582,42.5219727h1.340332c1.2001953,0,1.5405273-1.2001953,1.5405273-2.1206055
			c0-1.3803711-0.5800781-1.9003906-1.5405273-1.9003906h-1.340332V42.5219727z"/>
		<path style="fill:#FFFFFF;" d="M87.105957,50.7236328V36.2807617h7.8818359v2.2202148h-4.8613281v3.5610352h4.480957v2.2202148
			h-4.480957v4.2207031h5.0209961v2.2207031H87.105957z"/>
		<path style="fill:#FFFFFF;" d="M101.8857422,50.7236328V36.2807617h7.5014648v2.2202148h-4.480957v3.7006836h4.28125v2.2207031
			h-4.28125v6.3012695H101.8857422z"/>
	</g>
	<g>
		<path style="fill:#FFFFFF;" d="M109.5390625,50.7236328l4.0009766-14.4428711h3.9804688l3.9208984,14.4428711h-3.1806641
			l-0.800293-3.2006836h-4.1206055l-0.8203125,3.2006836H109.5390625z M115.3603516,39.0610352h-0.0400391l-1.3803711,6.2412109
			h2.8803711L115.3603516,39.0610352z"/>
		<path style="fill:#FFFFFF;" d="M122.9189453,43.5019531c0-3.8208008,0-7.4614258,4.980957-7.4614258
			c3.0810547,0,4.3212891,1.7001953,4.2011719,4.8007812h-2.9604492c0-1.9204102-0.340332-2.6401367-1.2407227-2.6401367
			c-1.7001953,0-1.9204102,1.6000977-1.9204102,5.3007812c0,3.7011719,0.2202148,5.3012695,1.9204102,5.3012695
			c1.4003906,0,1.340332-1.800293,1.3803711-2.9404297h2.980957c0,3.8608398-1.5405273,5.1010742-4.3613281,5.1010742
			C122.9189453,50.9638672,122.9189453,47.2827148,122.9189453,43.5019531z"/>
		<path style="fill:#FFFFFF;" d="M140.9604492,42.0620117v-5.78125h3.0205078v14.4428711h-3.0205078v-6.4414062h-3.4609375
			v6.4414062h-3.0205078V36.2807617h3.0205078v5.78125H140.9604492z"/>
		<path style="fill:#FFFFFF;" d="M150.7197266,50.9638672c-3.7407227,0-4.440918-2.2006836-4.2807617-4.7011719h3.0205078
			c0,1.3803711,0.0600586,2.5405273,1.7202148,2.5405273c1.0205078,0,1.5205078-0.6601562,1.5205078-1.6401367
			c0-2.6005859-6.081543-2.7607422-6.081543-7.0615234c0-2.2607422,1.0805664-4.0610352,4.7612305-4.0610352
			c2.9404297,0,4.4008789,1.3203125,4.2006836,4.3408203h-2.9404297c0-1.0800781-0.1801758-2.1801758-1.4003906-2.1801758
			c-0.9799805,0-1.5600586,0.5400391-1.5600586,1.5400391c0,2.7407227,6.0810547,2.5004883,6.0810547,7.0415039
			C155.7607422,50.5234375,153.0200195,50.9638672,150.7197266,50.9638672z"/>
		<path style="fill:#FFFFFF;" d="M157.9785156,43.5019531c0-3.8208008,0-7.4614258,4.980957-7.4614258
			c3.0810547,0,4.3212891,1.7001953,4.2011719,4.8007812h-2.9604492c0-1.9204102-0.340332-2.6401367-1.2407227-2.6401367
			c-1.7001953,0-1.9204102,1.6000977-1.9204102,5.3007812c0,3.7011719,0.2202148,5.3012695,1.9204102,5.3012695
			c1.4003906,0,1.340332-1.800293,1.3803711-2.9404297h2.980957c0,3.8608398-1.5405273,5.1010742-4.3613281,5.1010742
			C157.9785156,50.9638672,157.9785156,47.2827148,157.9785156,43.5019531z"/>
		<path style="fill:#FFFFFF;" d="M176.0205078,42.0620117v-5.78125h3.0205078v14.4428711h-3.0205078v-6.4414062h-3.4609375
			v6.4414062h-3.0205078V36.2807617h3.0205078v5.78125H176.0205078z"/>
		<path style="fill:#FFFFFF;" d="M191.6210938,36.2807617v10.2421875c0,2.1601562-1.2202148,4.440918-4.9013672,4.440918
			c-3.3203125,0-4.9208984-1.7207031-4.9208984-4.440918V36.2807617h3.0205078v10.0419922
			c0,1.7802734,0.7602539,2.4804688,1.8603516,2.4804688c1.3203125,0,1.9208984-0.8803711,1.9208984-2.4804688V36.2807617
			H191.6210938z"/>
		<path style="fill:#FFFFFF;" d="M194.2983398,50.7236328V36.2807617h3.0205078v12.0424805h4.5209961v2.4003906H194.2983398z"/>
		<path style="fill:#FFFFFF;" d="M203.3583984,50.7236328V36.2807617h7.8818359v2.2202148h-4.8613281v3.5610352h4.480957v2.2202148
			h-4.480957v4.2207031h5.0209961v2.2207031H203.3583984z"/>
	</g>
	<g>
		<path style="fill:#FFFFFF;" d="M37.1499023,120.2231445h5.8505859l11.7504883,36.1020508h-5.1503906l-2.6000977-8.6005859
			H33.0498047l-2.7001953,8.6005859h-4.6503906L37.1499023,120.2231445z M39.9501953,124.4731445h-0.1000977l-5.6503906,19.2514648
			h11.5507812L39.9501953,124.4731445z"/>
		<path style="fill:#FFFFFF;" d="M59.5493164,156.3251953v-36.1020508h4.6000977v15.8505859h0.1503906l12.6005859-15.8505859
			h5.2001953L69,136.5239258l13.8505859,19.8012695h-5.9003906l-12.6503906-18.8510742h-0.1503906v18.8510742H59.5493164z"/>
		<path style="fill:#FFFFFF;" d="M107.6000977,120.2231445v4h-9.5004883v32.1020508h-4.6000977v-32.1020508h-9.5004883v-4
			H107.6000977z"/>
		<path style="fill:#FFFFFF;" d="M117.5493164,156.3251953h-4.6000977v-36.1020508h4.6000977V156.3251953z"/>
		<path style="fill:#FFFFFF;" d="M138.7998047,156.3251953h-5.5004883l-10.4506836-36.1020508h5.0004883l8.2504883,31.7519531
			h0.1000977l8.4501953-31.7519531h4.7006836L138.7998047,156.3251953z"/>
		<path style="fill:#FFFFFF;" d="M159.2495117,156.3251953h-4.6000977v-36.1020508h4.6000977V156.3251953z"/>
		<path style="fill:#FFFFFF;" d="M167.9492188,156.3251953v-36.1020508h18.6010742v4h-14.0009766v11.6005859h13.0009766v4.0004883
			h-13.0009766v12.5009766h14.3007812v4H167.9492188z"/>
		<path style="fill:#FFFFFF;" d="M197.4492188,139.7241211v16.6010742h-4.6000977v-36.1020508h12.4506836
			c6.4003906,0,8.6503906,4.5,8.6503906,9.0004883c0,4.25-2.3500977,7.5004883-6.6000977,8.2504883v0.1000977
			c4.1503906,0.6499023,5.6503906,2.0498047,5.9003906,9.300293c0.0498047,1.550293,0.550293,7.2006836,1.2495117,9.4506836
			h-4.7998047c-1.300293-2.5-1-7.2001953-1.3999023-12.0009766c-0.3500977-4.3999023-3.9003906-4.6000977-5.4506836-4.6000977
			H197.4492188z M197.4492188,135.7241211h6.9008789c3.2998047,0,4.8999023-2.8505859,4.8999023-6.0004883
			c0-2.6000977-1.2998047-5.5004883-4.8500977-5.5004883h-6.9506836V135.7241211z"/>
		<path style="fill:#FFFFFF;" d="M220.5996094,120.2231445h4.6005859v23.1010742c0,7.9008789,2.3994141,9.9008789,6.75,9.9008789
			s6.75-2,6.75-9.9008789v-23.1010742h4.6005859v22.9013672c0,10.0004883-3.7001953,13.9506836-11.3505859,13.9506836
			s-11.3505859-3.9501953-11.3505859-13.9506836V120.2231445z"/>
		<path style="fill:#FFFFFF;" d="M276.2998047,120.2231445v36.1020508h-6.3007812l-14.25-31.3017578h-0.1005859v31.3017578
			h-4.1005859v-36.1020508h6.5009766L272.0996094,151.125h0.0996094v-30.9018555H276.2998047z"/>
		<path style="fill:#FFFFFF;" d="M301.9492188,129.8735352c0-4.25-1.75-6.550293-6.4003906-6.550293
			c-1.4501953,0-6.6503906,0.25-6.6503906,7.800293v12.2006836c0,7.9008789,2.2998047,9.9008789,6.6503906,9.9008789
			c3.2998047,0,5.5-0.8999023,6.4501953-1.6000977v-10.8007812h-6.6503906v-4h11.2509766V154.375
			c-2.9501953,1.6000977-6.4003906,2.7001953-11.0507812,2.7001953c-7.6503906,0-11.3505859-3.9501953-11.3505859-13.9506836
			v-11.8510742c0-7.2001953,3.7001953-11.800293,11.3505859-11.800293c7.7998047,0,11.5,2.8500977,11.2001953,10.4003906
			H301.9492188z"/>
	</g>
	<polygon style="fill:#FFFFFF;" points="386.2749939,337.0089722 384.4099731,347.5849915 394.9859619,347.5849915 
		396.8499756,337.0089722 386.2749939,337.0089722 	"/>
	<polygon style="fill:#FFFFFF;" points="378.1159973,383.2780151 388.6919861,383.2780151 394.2859802,351.5509949 
		383.7109985,351.5509949 378.1159973,383.2780151 	"/>
	<path style="fill:#FFFFFF;" d="M370.4110107,337.0089722l-2.5640564,14.5420227h-7.93396
		c-4.36203,0.0009766-8.5589905,3.5700073-9.3280029,7.9309692l0,0l-1.375,7.7980042l-1.4220276,8.06604l0,0
		c-0.7689819,4.3619995,2.1700439,7.9320068,6.5330505,7.9320068l0,0h18.5069885l8.1589966-46.269043H370.4110107
		L370.4110107,337.0089722z M362.9519958,379.3120117c-0.1260071,0.7119751-0.8110046,1.321991-1.5230103,1.321991h-2.7080078
		c-0.7120056,0-1.1820068-0.6100159-1.0569763-1.321991l4.1959839-23.7950134
		c0.1259766-0.7130432,0.8109741-1.321991,1.5229797-1.321991h2.7080383c0.7120056,0,1.1820068,0.6089478,1.0570068,1.321991
		L362.9519958,379.3120117L362.9519958,379.3120117z"/>
	<path style="fill:#FFFFFF;" d="M307.0389709,351.5509949h-34.3729858l-5.5939941,31.7270203h10.5749817l4.8950195-27.7610168
		c0.1260071-0.7130432,0.8110046-1.321991,1.5230103-1.321991h2.7079773c0.7130127,0,1.1830139,0.6069946,1.0580139,1.3190002
		l-4.8960266,27.7640076h10.5760193l4.894989-27.7610168c0.1260071-0.7130432,0.8099976-1.321991,1.5230103-1.321991h2.7080078
		c0.7120056,0,1.1820068,0.6089478,1.0569763,1.321991l-0.605957,3.4369812l-1.177002,6.6730042l-0.3619995,2.0510254
		l-2.75,15.6000061h10.5749512l4.1960144-23.796051l0,0C314.3389893,355.1210022,311.3999634,351.5519714,307.0389709,351.5509949
		L307.0389709,351.5509949z"/>
	<path style="fill:#FFFFFF;" d="M338.7659912,351.5509949h-10.5799866c-4.36203,0.0009766-8.5589905,3.5700073-9.3280029,7.9309692
		l-2.7970276,15.8640442c-0.7690125,4.3619995,2.1700134,7.9320068,6.53302,7.9320068l0,0h10.5779724
		c4.3570251-0.0020142,8.5500183-3.5630188,9.3250427-7.9190063l0,0l0,0l0.4689636-2.6570129h-10.5749817l-1.1660156,6.6100159
		c-0.1259766,0.7119751-0.8109741,1.321991-1.5229797,1.321991h-2.7080383c-0.7119751,0-1.1819458-0.6100159-1.0569763-1.321991
		l1.638031-9.2870178c0.1259766-0.7120056,0.8049927-1.2890015,1.5169983-1.2890015h14.572998l1.6319885-9.2540283l0,0
		C346.0660095,355.1210022,343.1269836,351.5519714,338.7659912,351.5509949L338.7659912,351.5509949z M333.7829895,364.8029785
		c-0.1259766,0.7120056-0.8049927,1.2890015-1.5170288,1.2890015h-2.7079773c-0.7119751,0-1.1879883-0.5769958-1.0620117-1.2890015
		l1.6370239-9.2870178c0.1259766-0.7120056,0.8099976-1.3209534,1.5230103-1.321991h2.7080078
		c0.7119751,0.0010376,1.1819763,0.6099854,1.0569763,1.321991L333.7829895,364.8029785L333.7829895,364.8029785z"/>
	<polygon style="fill:#FFFFFF;" points="264.7379761,351.5509949 254.1589661,351.5509949 252.2939911,362.1279907 
		262.8720093,362.1279907 264.7379761,351.5509949 	"/>
	<path style="fill:#FFFFFF;" d="M250.4279785,372.70401l-1.864975,10.5769958h3.96698l-0.2799988,1.5870056
		c0,0-0.0609894,0.3489685-0.0929871,0.5279541l0,0c-0.3790131,2.1500244-1.2740021,4.1450195-2.5940094,5.809021
		l0.2460175,0.0090027c4.2269745,0,8.2999725-3.3500061,9.2509918-7.526001
		c0.0289612-0.1350098,0.0579834-0.269989,0.0820007-0.4060059v-0.0009766l1.8649597-10.5769958H250.4279785L250.4279785,372.70401z
		"/>
</g>
</svg>
