<svg id="Ebene_1" data-name="Ebene 1" xmlns="http://www.w3.org/2000/svg" viewBox="0 0 100 100"><defs><style>.cls-1{fill:#a6a99c;}.cls-2{fill:#7b7c75;}.cls-3{fill:#fff;}.cls-4{fill:#181716;}</style></defs><rect class="cls-1" x="13.67257" y="21.4" width="72" height="53.2"/><rect class="cls-2" x="13.67257" y="21.4" width="72" height="12"/><rect class="cls-3" x="13.67257" y="33.4" width="72" height="4"/><rect class="cls-3" x="17.67257" y="25.4" width="4" height="4"/><rect class="cls-3" x="25.67257" y="25.4" width="4" height="4"/><rect class="cls-3" x="33.67257" y="25.4" width="4" height="4"/><rect class="cls-4" x="13.67257" y="74.6" width="72" height="4"/><rect class="cls-3" x="51.27257" y="44.2" width="26.8" height="4"/><rect class="cls-3" x="51.27257" y="54.2" width="26.8" height="4"/><rect class="cls-3" x="51.27257" y="64.2" width="26.8" height="4"/><polygon class="cls-3" points="34.873 44.7 31.973 47.6 40.673 56.2 32.073 64.8 34.873 67.6 46.273 56.2 34.873 44.7"/><polygon class="cls-3" points="23.473 44.7 20.673 47.6 29.273 56.2 20.673 64.8 23.573 67.6 34.973 56.2 23.473 44.7"/></svg>